<?xml version="1.0" encoding="UTF-8"?>
<svg version="1.1" xmlns="http://www.w3.org/2000/svg" width="365" height="482">
<path d="M0 0 C1.4399382 -0.00492462 1.4399382 -0.00492462 2.90896606 -0.00994873 C39.07776823 -0.04981245 39.07776823 -0.04981245 54.6875 6.3125 C56.57492687 6.77230931 58.46302312 7.23025683 60.35864258 7.6550293 C74.53913874 10.8608373 85.5832618 17.72188874 94.6875 29.3125 C95.86291992 30.4314587 97.07142875 31.51683146 98.3125 32.5625 C101.47084071 35.25792992 104.56078032 38.01038309 107.625 40.8125 C111.48294086 44.29651737 115.44380162 47.56259785 119.58203125 50.70703125 C120.27683594 51.23683594 120.97164063 51.76664063 121.6875 52.3125 C122.51507813 52.93769531 123.34265625 53.56289063 124.1953125 54.20703125 C131.5325393 60.40572286 137.5949946 69.0360558 140.7109375 78.05859375 C141.89676137 80.79547524 143.45460681 83.0924505 145.125 85.5625 C148.39519039 90.49889734 150.28739545 95.3156246 151.9609375 100.9765625 C152.46920206 103.24926469 152.46920206 103.24926469 153.6875 104.3125 C158.57671568 125.26628147 159.20993796 146.71121721 159.25 168.125 C159.25830841 169.31877258 159.26661682 170.51254517 159.275177 171.74249268 C159.40189478 196.70482313 159.40189478 196.70482313 154.6875 208.3125 C154.36539551 209.11413574 154.04329102 209.91577148 153.71142578 210.74169922 C152.75841968 212.96214025 151.73175091 215.13367167 150.6875 217.3125 C148.9810109 221.11662073 147.30499587 224.93411734 145.625 228.75 C145.19123047 229.72259766 144.75746094 230.69519531 144.31054688 231.69726562 C141.9396871 237.09936164 139.91347545 242.42664023 138.36547852 248.12255859 C137.472741 251.00619401 136.18431958 253.58295386 134.75 256.23046875 C133.56800171 258.46543747 133.56800171 258.46543747 132.41015625 261.5390625 C130.55471101 265.92344112 127.88231094 269.64121399 125.125 273.5 C124.14221589 274.88768604 123.16166807 276.27695913 122.18359375 277.66796875 C121.75232178 278.27278076 121.3210498 278.87759277 120.87670898 279.50073242 C119.63085862 281.32161459 119.63085862 281.32161459 118.62182617 283.44555664 C117.58011155 285.52708047 116.36345947 286.71233769 114.6875 288.3125 C113.15410621 290.23971624 111.70061979 292.21473502 110.2421875 294.19921875 C109.26502403 295.52747361 108.27229303 296.84455483 107.2578125 298.14453125 C90.11426825 320.61373274 98.34425295 376.39893132 101.8359375 403.2265625 C102.41823435 407.11004522 103.37580163 410.60483646 104.6875 414.3125 C108.33775242 433.6678508 111.22141531 463.13154999 102.6875 481.3125 C102.0275 480.9825 101.3675 480.6525 100.6875 480.3125 C100.6875 479.6525 100.6875 478.9925 100.6875 478.3125 C100.02225311 478.31694122 99.35700623 478.32138245 98.67160034 478.32595825 C91.62874543 478.3708573 84.58593235 478.40063647 77.54296875 478.42236328 C74.92869409 478.43230471 72.31443019 478.44586254 69.70019531 478.46337891 C56.16869942 478.55165037 42.81351967 478.4536437 29.34779358 477.04466248 C21.1658946 476.19975162 13.04587062 475.97341185 4.82397461 475.99682617 C2.45968148 476.00005506 0.09656842 475.97610349 -2.26757812 475.95117188 C-11.74511711 475.91220411 -20.80669077 476.14958831 -29.25 481 C-34.05676215 483.06004092 -39.15180699 482.9073703 -44.3125 482.3125 C-46.84960645 479.77539355 -46.58465065 478.80792359 -46.65625 475.2890625 C-46.68589844 474.26683594 -46.71554688 473.24460937 -46.74609375 472.19140625 C-46.76800781 471.11761719 -46.78992188 470.04382813 -46.8125 468.9375 C-46.94187438 462.82646304 -47.11516203 456.92310913 -48.31640625 450.91796875 C-50.21500915 440.45425283 -49.70213066 429.61122561 -49.76879883 419.01098633 C-49.37761077 400.20435343 -49.37761077 400.20435343 -54.3125 382.3125 C-57.10265995 381.38244668 -58.61576355 381.21093149 -61.47900391 381.27832031 C-62.31986542 381.29432281 -63.16072693 381.31032532 -64.02706909 381.32681274 C-64.93852692 381.34787079 -65.84998474 381.36892883 -66.7890625 381.390625 C-68.74834388 381.42192382 -70.70765654 381.4513099 -72.66699219 381.47900391 C-73.69223999 381.49360657 -74.71748779 381.50820923 -75.77380371 381.52325439 C-93.00675018 381.73702884 -109.18877689 381.5558168 -125.91601562 376.92895508 C-128.41665658 376.28570748 -130.90755398 375.85366719 -133.453125 375.42578125 C-138.37833848 374.46933532 -142.11663367 372.56365555 -146.3125 369.875 C-146.96605469 369.47990234 -147.61960938 369.08480469 -148.29296875 368.67773438 C-152.82632746 365.8689214 -154.82390312 363.88801063 -156.42578125 358.72265625 C-157.51660121 354.0484767 -157.57247944 349.52982865 -157.5 344.75 C-157.49935547 343.93853516 -157.49871094 343.12707031 -157.49804688 342.29101562 C-157.47293083 338.83337412 -157.35324309 335.57271386 -156.81689453 332.1472168 C-156.21141845 327.54401603 -156.11276459 323.03607747 -156.07421875 318.3984375 C-156.066147 317.46577057 -156.05807526 316.53310364 -156.04975891 315.57217407 C-156.03599412 313.61063457 -156.02523834 311.64907188 -156.01733398 309.6875 C-156.00575689 307.68384776 -155.985216 305.68022771 -155.95581055 303.67675781 C-155.91322278 300.77127277 -155.89698406 297.86669547 -155.88671875 294.9609375 C-155.86921066 294.0681308 -155.85170258 293.1753241 -155.83366394 292.25546265 C-155.84803183 288.14030983 -155.95858391 285.89504711 -158.13598633 282.31103516 C-163.54313715 277.34603946 -170.90620434 276.74358143 -177.87695312 275.50952148 C-182.98636835 274.59619576 -188.02509904 273.50062898 -193.0625 272.25 C-193.72958984 272.08765869 -194.39667969 271.92531738 -195.08398438 271.75805664 C-203.52253367 269.62348527 -203.52253367 269.62348527 -205.39819336 266.51074219 C-206.95529847 262.76703741 -206.64034079 259.00394706 -206.625 255 C-206.64916992 253.75573242 -206.64916992 253.75573242 -206.67382812 252.48632812 C-206.67813467 247.02993197 -205.73979422 243.28874281 -203.3125 238.3125 C-202.21886337 235.19830301 -201.18228173 232.07100943 -200.15869141 228.93334961 C-198.40095337 223.55398552 -198.40095337 223.55398552 -197.4296875 220.90234375 C-194.45805265 212.78508856 -193.29792076 204.11553335 -191.85546875 195.62109375 C-190.81515863 189.87508177 -189.13286292 184.39513331 -187.34692383 178.84570312 C-183.82786886 167.81340784 -181.11177183 156.54443304 -178.3125 145.3125 C-178.07789063 144.38566406 -177.84328125 143.45882812 -177.6015625 142.50390625 C-176.49125364 138.1083894 -175.39463076 133.71374161 -174.40625 129.2890625 C-172.25735067 119.72409483 -169.62717646 110.55279808 -166.3125 101.3125 C-165.94511719 100.24773437 -165.57773438 99.18296875 -165.19921875 98.0859375 C-162.85691804 91.59832798 -160.00004821 85.48074465 -156.8125 79.375 C-156.44479492 78.6648877 -156.07708984 77.95477539 -155.69824219 77.22314453 C-152.44343822 71.1437693 -148.63916928 66.20678982 -143.3125 61.75 C-141.05490626 59.83230421 -138.98205275 57.96466079 -136.9375 55.8125 C-128.7183597 47.98474733 -118.30135716 42.19157535 -108.125 37.3125 C-103.76306246 35.18186128 -100.29807332 32.91368988 -96.75390625 29.6171875 C-94.79078516 27.84027031 -92.60321973 26.62966384 -90.3125 25.3125 C-89.28125 24.549375 -88.25 23.78625 -87.1875 23 C-60.27590014 3.62828803 -31.96322983 0.09003824 0 0 Z " fill="#FEFEFE" transform="translate(206.3125,-0.3125)"/>
<path d="M0 0 C1.5768457 -0.02416992 1.5768457 -0.02416992 3.18554688 -0.04882812 C24.33435353 -0.06182678 43.80737415 9.69136183 58.71484375 24.28515625 C74.63027398 40.33124678 82.64431896 60.66340821 82.72216797 83.25 C82.45275637 99.27809294 76.93143319 113.33705317 69.66088867 127.35424805 C61.7112223 142.82392071 57.77657631 158.58584946 56.21032715 175.83694458 C54.54135538 193.49700027 51.34785677 207.8287706 37.6875 220.3125 C36.96691406 220.79203125 36.24632812 221.2715625 35.50390625 221.765625 C33.19177452 223.73466622 33.16333063 224.77384143 32.875 227.75 C31.42258957 236.45172214 26.56355461 244.76464604 19.51171875 250.13671875 C10.19880484 256.13926069 0.53695123 257.86479593 -10.4375 255.6875 C-19.81327686 252.94008998 -26.95435358 245.88918963 -31.5625 237.5 C-33.04959444 234.41874031 -33.54976616 231.75981165 -33.9375 228.375 C-34.91961976 222.52692322 -38.35214268 220.21726033 -42.7734375 216.5859375 C-50.36511422 209.78846696 -54.14500122 199.07652243 -56.3125 189.3125 C-56.4053036 187.28319465 -56.49431747 185.25352817 -56.55126953 183.22290039 C-57.23948871 160.7236027 -63.59136193 140.31049557 -73 120 C-82.3760279 99.46810801 -85.59837131 76.23428987 -77.98828125 54.39453125 C-73.48502514 42.90640816 -67.20076819 32.91502015 -58.3125 24.3125 C-57.12333984 23.14460938 -57.12333984 23.14460938 -55.91015625 21.953125 C-40.23770929 7.19676104 -21.39461468 -0.06487148 0 0 Z " fill="#050505" transform="translate(201.3125,87.6875)"/>
<path d="M0 0 C13.19594548 9.83392115 24.24731343 25.11663603 26.71875 41.65625 C28.45857464 62.34083188 24.51900724 77.73552745 14.96484375 95.97631836 C12.42446621 100.87345359 10.55795754 105.81327529 8.875 111.0625 C8.62363281 111.82626953 8.37226563 112.59003906 8.11328125 113.37695312 C7.393367 115.5800415 6.69314941 117.78836379 6 120 C5.64421875 121.1240625 5.2884375 122.248125 4.921875 123.40625 C3.73157195 128.04641444 3.04404189 132.69851819 2.375 137.4375 C1.92125 140.593125 1.4675 143.74875 1 147 C-6.26 147 -13.52 147 -21 147 C-20.0842729 142.42136452 -18.98406468 137.94358009 -17.81640625 133.42578125 C-17.19653676 130.82470208 -16.64586589 128.24388955 -16.13671875 125.62109375 C-14.69128001 118.28952634 -12.96032846 111.0231978 -11.25 103.75 C-11.07525146 103.00309906 -10.90050293 102.25619812 -10.72045898 101.48666382 C-8.30009255 91.157438 -5.74937777 80.88531035 -2.72753906 70.71191406 C-1.37889314 66.04177834 -0.45615623 61.91313403 -1 57 C-2.04988062 54.97562412 -2.04988062 54.97562412 -4 54 C-6.40718864 53.56281043 -6.40718864 53.56281043 -9 53.6875 C-9.86625 53.69136719 -10.7325 53.69523437 -11.625 53.69921875 C-14.26417937 53.8541783 -14.26417937 53.8541783 -17 56 C-19.28397032 55.65394389 -20.93409037 55.03295481 -23 54 C-24.97637414 53.87772074 -26.9573831 53.82450071 -28.9375 53.8125 C-30.52884766 53.79123047 -30.52884766 53.79123047 -32.15234375 53.76953125 C-35.20277669 53.78434933 -35.20277669 53.78434933 -38 56 C-40.28397032 55.65394389 -41.93409037 55.03295481 -44 54 C-46.10148182 53.87672071 -48.20743907 53.82441994 -50.3125 53.8125 C-52.00826172 53.79123047 -52.00826172 53.79123047 -53.73828125 53.76953125 C-56.98859493 53.82529128 -56.98859493 53.82529128 -59.73046875 55.13671875 C-60.47941406 55.42160156 -61.22835937 55.70648438 -62 56 C-62.99 55.34 -63.98 54.68 -65 54 C-67.67366737 53.64540232 -67.67366737 53.64540232 -70.5625 53.6875 C-72.01849609 53.66236328 -72.01849609 53.66236328 -73.50390625 53.63671875 C-74.32761719 53.75660156 -75.15132812 53.87648438 -76 54 C-78.99468185 58.49202277 -77.95556987 61.81435967 -77 67 C-75.86218557 71.79197066 -74.54700382 76.53722932 -73.25390625 81.2890625 C-72.23757685 85.04776121 -71.34896365 88.81041585 -70.5625 92.625 C-69.2013044 99.22215822 -67.64281807 105.76456468 -66.0625 112.3125 C-65.80267334 113.39192871 -65.54284668 114.47135742 -65.27514648 115.58349609 C-64.09937717 120.46269926 -62.91731168 125.34023142 -61.72265625 130.21484375 C-61.35663913 131.72653062 -60.99074397 133.23824702 -60.625 134.75 C-60.45750244 135.42200439 -60.29000488 136.09400879 -60.11743164 136.78637695 C-59.25026123 140.39281587 -59 143.21453796 -59 147 C-66.59 147 -74.18 147 -82 147 C-82.350625 143.865 -82.70125 140.73 -83.0625 137.5 C-84.1623972 128.82097925 -85.97880826 120.51893831 -88.4375 112.125 C-88.72568604 111.13435547 -89.01387207 110.14371094 -89.31079102 109.12304688 C-91.04481101 103.43061088 -93.12977745 98.21096515 -96 93 C-105.02157402 76.58073529 -109.56288125 57.37326886 -105.11328125 38.70703125 C-98.95969863 18.21668071 -87.38876301 4.43007287 -69 -6 C-46.16267389 -16.3761428 -20.79873308 -13.94766753 0 0 Z " fill="#FBFBFB" transform="translate(241,115)"/>
<path d="M0 0 C4.59124019 1.5304134 8.53638615 1.49762871 13.125 -0.0625 C16.42459319 -1.1384543 17.70505556 -0.9414127 21 0 C22.43675554 0.35717474 23.87430508 0.71116591 25.3125 1.0625 C26.529375 1.371875 27.74625 1.68125 29 2 C28.43124406 6.53867242 27.58659502 10.75367695 26.25 15.125 C23.72180869 23.750057 21.69288931 32.47648929 19.64990234 41.22705078 C18.78409146 44.92122058 17.90219464 48.61146759 17.02001953 52.30175781 C14.97438203 60.85905746 12.95749162 69.42204892 11 78 C8.69 78 6.38 78 4 78 C0.68661692 66.01379853 -2.18380694 53.95272511 -4.88165283 41.81408691 C-7.16589495 31.5448662 -9.60309389 21.32371064 -12.22241211 11.1340332 C-12.45710205 10.21710693 -12.69179199 9.30018066 -12.93359375 8.35546875 C-13.2438147 7.15893677 -13.2438147 7.15893677 -13.56030273 5.93823242 C-14 4 -14 4 -14 2 C-4.60176991 -1.62415409 -4.60176991 -1.62415409 0 0 Z " fill="#FBFBFB" transform="translate(194,184)"/>
<path d="M0 0 C1.70215434 3.1039285 1.77098006 6.49234204 1.0625 9.9375 C-1.09048694 12.57354754 -2.80494934 13.41824031 -6.10546875 14.10546875 C-6.91693359 14.27626953 -7.72839844 14.44707031 -8.56445312 14.62304688 C-9.40943359 14.78869141 -10.25441406 14.95433594 -11.125 15.125 C-11.95064453 15.30224609 -12.77628906 15.47949219 -13.62695312 15.66210938 C-26.45755184 18.28080525 -26.45755184 18.28080525 -31.9375 15.3125 C-33.9375 12.9375 -33.9375 12.9375 -34.5625 10 C-33.70656676 5.8059271 -32.28222611 4.60733848 -28.9375 1.9375 C-25.70712712 0.76014562 -22.44366006 0.15160402 -19.0625 -0.4375 C-18.18980469 -0.61410156 -17.31710937 -0.79070312 -16.41796875 -0.97265625 C-10.78360081 -2.03174797 -5.24615867 -2.87692572 0 0 Z " fill="#0A0A0A" transform="translate(323.9375,146.0625)"/>
<path d="M0 0 C2.875 1.5625 2.875 1.5625 5 4 C5.8125 7.375 5.8125 7.375 5 11 C2.69720832 13.57025474 -0.06948379 15.21288028 -3 17 C-3.95261719 17.62519531 -4.90523437 18.25039062 -5.88671875 18.89453125 C-17.16195405 25.98305946 -17.16195405 25.98305946 -24 25 C-26.5625 23.4375 -26.5625 23.4375 -28 21 C-28.5625 18.0625 -28.5625 18.0625 -28 15 C-24.1555021 10.48234099 -19.61578957 7.65098433 -14.5625 4.6875 C-13.45551758 4.0059082 -13.45551758 4.0059082 -12.32617188 3.31054688 C-8.09672493 0.81047379 -5.05857152 -0.74720407 0 0 Z " fill="#090909" transform="translate(119,214)"/>
<path d="M0 0 C2.875 1.5625 2.875 1.5625 5 4 C5.51239985 7.33873236 5.70128325 9.81896725 3.93115234 12.80004883 C2.44490363 14.6587569 0.88454123 16.3954273 -0.75 18.125 C-1.82865834 19.3146208 -2.90679342 20.50471627 -3.984375 21.6953125 C-4.50378662 22.25524902 -5.02319824 22.81518555 -5.55834961 23.39208984 C-6.83746012 24.81871504 -8.01549236 26.33454293 -9.17578125 27.859375 C-11 30 -11 30 -14.4375 31.125 C-18 31 -18 31 -20.9375 28.9375 C-23.38275896 25.45485845 -23.50141052 24.16635959 -23 20 C-21.3125 17.32421875 -21.3125 17.32421875 -19 14.6875 C-18.17886719 13.74648437 -17.35773438 12.80546875 -16.51171875 11.8359375 C-15.26841797 10.43214844 -15.26841797 10.43214844 -14 9 C-12.92685547 7.65808594 -12.92685547 7.65808594 -11.83203125 6.2890625 C-10.83236328 5.06316406 -10.83236328 5.06316406 -9.8125 3.8125 C-9.22082031 3.07644531 -8.62914062 2.34039062 -8.01953125 1.58203125 C-5.24226532 -0.59358326 -3.44217401 -0.3931301 0 0 Z " fill="#090909" transform="translate(280,74)"/>
<path d="M0 0 C5.23150899 1.20727131 7.80811249 4.79866344 11.25 8.75 C12.06726563 9.65234375 12.88453125 10.5546875 13.7265625 11.484375 C21.00826716 19.85255623 21.00826716 19.85255623 21.25 26.75 C18.89982791 30.0972148 17.34100697 31.46538949 13.375 32.5 C6.01201135 30.73288272 1.38430993 22.57653121 -3.05078125 16.88671875 C-4.72167964 14.70277482 -4.72167964 14.70277482 -6.75 12.75 C-7.42386609 5.78671706 -7.42386609 5.78671706 -5.125 2.25 C-2.75 0.75 -2.75 0.75 0 0 Z " fill="#090909" transform="translate(124.75,73.25)"/>
<path d="M0 0 C1.25683594 0.20109375 2.51367188 0.4021875 3.80859375 0.609375 C15.73193986 2.67599151 15.73193986 2.67599151 20 7 C20.63210717 10.93311127 20.60020266 13.02467068 18.5 16.4375 C12.71714634 20.05178354 4.56685928 17.57882126 -1.75 16.25 C-3.00490234 16.01410156 -3.00490234 16.01410156 -4.28515625 15.7734375 C-8.91164327 14.81419777 -12.15008005 14.06476519 -15 10 C-15.5625 6.5 -15.5625 6.5 -15 3 C-10.87217875 -2.50376167 -6.03135061 -1.0895343 0 0 Z " fill="#090909" transform="translate(92,145)"/>
<path d="M0 0 C2.7109774 2.14591788 3.86983992 3.32620563 4.53344727 6.76147461 C4.56905625 10.15487868 4.59390478 13.54393652 4.5625 16.9375 C4.58634766 18.11763672 4.61019531 19.29777344 4.63476562 20.51367188 C4.6183979 30.15425987 4.6183979 30.15425987 1.65625 33.28125 C-1.6020937 35.38959004 -3.19231556 35.72913106 -7 35 C-9.8866929 32.80805161 -10.89263334 31.63704217 -11.50170898 28.02319336 C-11.49985596 26.89018799 -11.49800293 25.75718262 -11.49609375 24.58984375 C-11.49673828 23.35298828 -11.49738281 22.11613281 -11.49804688 20.84179688 C-11.47806641 19.55337891 -11.45808594 18.26496094 -11.4375 16.9375 C-11.44458984 15.64521484 -11.45167969 14.35292969 -11.45898438 13.02148438 C-11.39468036 3.53911597 -11.39468036 3.53911597 -9.66040039 1.17016602 C-6.25618086 -1.22895532 -3.84040707 -1.21769005 0 0 Z " fill="#060606" transform="translate(205,47)"/>
<path d="M0 0 C2.08122726 1.07515576 4.09604542 2.22554617 6.11083984 3.42041016 C6.79662109 3.80777344 7.48240234 4.19513672 8.18896484 4.59423828 C19.36607843 11.04667504 19.36607843 11.04667504 20.83740234 15.36572266 C20.6772566 18.50704295 20.51339713 20.71763682 18.54833984 23.23291016 C14.61329806 24.84728627 10.99803965 25.021971 7.01342773 23.35595703 C4.76267411 22.139306 2.59277906 20.83904775 0.42333984 19.48291016 C-0.32238281 19.03947266 -1.06810547 18.59603516 -1.83642578 18.13916016 C-11.32833785 12.38135444 -11.32833785 12.38135444 -12.42041016 8.19775391 C-12.33696194 2.78405081 -12.33696194 2.78405081 -10.26416016 0.23291016 C-6.70451611 -1.26588734 -3.64589729 -1.48040957 0 0 Z " fill="#080808" transform="translate(290.88916015625,214.76708984375)"/>
<path d="M0 0 C26.07 0 52.14 0 79 0 C78.34 1.98 77.68 3.96 77 6 C67.25580177 6.06941478 57.51166205 6.12276776 47.76726723 6.15543652 C43.24286816 6.17111343 38.71863786 6.19238839 34.19433594 6.22631836 C29.83067535 6.25883996 25.46717739 6.27683774 21.103405 6.28463173 C19.43596205 6.29018824 17.76852831 6.30103834 16.10115433 6.31719017 C13.77117711 6.33886932 11.44187773 6.34197101 9.11181641 6.34057617 C8.07064415 6.35675491 8.07064415 6.35675491 7.00843811 6.3732605 C5.08779907 6.36076355 5.08779907 6.36076355 2 6 C0 3 0 3 0 0 Z " fill="#FDFDFD" transform="translate(161,277)"/>
<path d="M0 0 C16.17 0 32.34 0 49 0 C47.43867786 3.12264429 45.17272797 3.64025944 42 5 C29.92464847 8.76117507 15.1322312 8.48524194 3.5 3.5 C1 2 1 2 0 0 Z " fill="#E9E9E9" transform="translate(176,298)"/>
<path d="M0 0 C10.23 0 20.46 0 31 0 C28.88597553 5.28506116 28.03985443 6.3962266 23.41015625 9.04296875 C18.17780507 11.12064466 12.82219493 11.12064466 7.58984375 9.04296875 C2.96014557 6.3962266 2.11402447 5.28506116 0 0 Z " fill="#EBEBEB" transform="translate(185,319)"/>
<path d="M0 0 C0.99 0.33 1.98 0.66 3 1 C1.625 3 1.625 3 0 5 C-0.66 5 -1.32 5 -2 5 C-2.33 6.32 -2.66 7.64 -3 9 C-2.25 2.25 -2.25 2.25 0 0 Z " fill="#262626" transform="translate(165,168)"/>
</svg>
