<?xml version="1.0" encoding="UTF-8"?>
<svg version="1.1" xmlns="http://www.w3.org/2000/svg" width="657" height="543">
<path d="M0 0 C1.83691406 -0.02320312 1.83691406 -0.02320312 3.7109375 -0.046875 C19.47200121 0.01990917 32.74093873 5.23014839 44.5625 15.5625 C55.14061274 24.66573901 65.14305429 26.6009495 78.74047852 25.73632812 C81.28185747 25.41762689 83.32519526 24.61118512 85.625 23.5 C86.53636719 23.12101562 87.44773437 22.74203125 88.38671875 22.3515625 C89.35222656 21.94679688 90.31773437 21.54203125 91.3125 21.125 C95.95463397 19.18508862 100.61458136 17.30146173 105.296875 15.4609375 C107.43888938 14.57681747 109.48444009 13.58516728 111.5625 12.5625 C135.6953079 2.02800473 160.31115949 3.21744323 184.625 12.5 C188.63528895 14.13146232 192.50940421 15.94056998 196.375 17.890625 C199.49407039 19.43516466 202.61602423 20.6611978 205.875 21.875 C219.17407896 27.33424506 229.06714394 38.48755923 234.625 51.5 C235.32881157 53.48723268 235.9961811 55.48777953 236.625 57.5 C239.02357783 64.47123607 241.80112418 72.52243063 248.390625 76.58984375 C250.42927677 77.51471479 250.42927677 77.51471479 253.625 78.5 C254.388125 78.850625 255.15125 79.20125 255.9375 79.5625 C262.29802532 81.7812879 268.96687534 82.54907376 275.625 83.375 C285.1856378 84.7186572 292.57556385 88.354539 300.90234375 93.07421875 C303.4681412 94.4178573 305.95301685 95.37532972 308.6875 96.3125 C318.5340269 100.11044609 325.36698024 108.65696677 330.625 117.5 C330.95242188 118.04978516 331.27984375 118.59957031 331.6171875 119.16601562 C343.47297853 139.55708479 344.21603108 159.49603757 343.35351562 182.5715332 C343.33027725 183.49276978 343.30703888 184.41400635 343.28309631 185.36315918 C343.23896377 187.10099279 343.17048458 188.83845298 343.07273865 190.57409668 C342.91734915 198.11280845 346.30810894 202.03549245 351.34786987 207.29954529 C352.93281146 208.89811885 354.55467331 210.45046614 356.1875 212 C360.76244522 216.46427144 364.81312121 220.68276453 367.625 226.5 C368.49125 228.2634375 368.49125 228.2634375 369.375 230.0625 C371.86585075 236.91233957 371.89009695 244.14853534 372.23046875 251.359375 C372.38111484 254.25801363 372.53188665 257.06803808 373.14453125 259.91015625 C376.08927807 275.78305986 373.61368669 294.57777166 368.55859375 309.6875 C367.80338487 311.96260626 367.19861949 314.16345378 366.6875 316.5 C364.20122828 326.65942067 360.04306576 335.27876339 353.625 343.5 C352.861875 344.53125 352.09875 345.5625 351.3125 346.625 C350.755625 347.24375 350.19875 347.8625 349.625 348.5 C348.965 348.5 348.305 348.5 347.625 348.5 C347.295 349.49 346.965 350.48 346.625 351.5 C345.64851983 352.52297922 344.64368662 353.51904252 343.625 354.5 C343.109375 355.2425 342.59375 355.985 342.0625 356.75 C333.27246525 366.66696228 322.70457217 369.54736471 309.89453125 370.37695312 C308.77433594 370.43818359 307.65414062 370.49941406 306.5 370.5625 C292.23472331 371.38581025 284.8438456 372.85927546 274.625 383.5 C270.49461404 388.19058001 267.98900134 392.75885389 265.625 398.5 C264.0625 400.1875 264.0625 400.1875 262.625 401.5 C261.44925289 403.59989652 261.44925289 403.59989652 260.625 405.5 C259.965 405.5 259.305 405.5 258.625 405.5 C258.625 406.16 258.625 406.82 258.625 407.5 C257.965 407.5 257.305 407.5 256.625 407.5 C256.295 408.49 255.965 409.48 255.625 410.5 C253.953125 412.1484375 253.953125 412.1484375 251.875 413.875 C249.50814026 415.87675904 247.2932198 417.84007471 245.125 420.0625 C238.41036838 426.60926583 232.27007389 430.75640491 222.59814453 430.74291992 C220.84439011 430.74753487 220.84439011 430.74753487 219.0552063 430.75224304 C217.80206635 430.74505753 216.54892639 430.73787201 215.2578125 430.73046875 C213.95029022 430.73001053 212.64276794 430.72955231 211.29562378 430.7290802 C208.5267809 430.72751915 205.75806796 430.7192689 202.98925781 430.70581055 C199.48840942 430.68898584 195.98770401 430.68510282 192.48682022 430.68559456 C153.44256036 430.68469295 153.44256036 430.68469295 140.625 426.75 C139.76261719 426.51023437 138.90023438 426.27046875 138.01171875 426.0234375 C130.16145366 423.71243382 120.93574598 419.46611897 116.25 412.4375 C113.29805027 408.91786762 109.63821783 407.83609091 105.26171875 407.10546875 C98.05955565 406.62383109 94.17516228 409.21353587 88.625 413.5 C83.50882667 417.11851159 78.82247957 419.28608488 72.7265625 420.82421875 C70.43638821 421.3841467 70.43638821 421.3841467 68.625 423.5 C66.5411796 424.22777356 64.43245418 424.88538135 62.3125 425.5 C57.61038448 426.87178069 57.61038448 426.87178069 53.015625 428.5546875 C36.76984311 434.97867315 17.17243616 432.8877484 1.51074219 426.26074219 C-1.37174243 425.09789625 -4.33043024 424.24390144 -7.3125 423.375 C-12.01089522 421.96489633 -16.51892873 420.3235494 -21.0390625 418.421875 C-23.33625222 417.51529177 -25.62357135 416.8525756 -28 416.1875 C-33.24442594 414.44543851 -36.45259362 411.287814 -40.375 407.5 C-41.56511348 406.40472583 -42.75807118 405.31253789 -43.953125 404.22265625 C-45.24001194 403.04473892 -46.52646724 401.86634985 -47.8125 400.6875 C-48.44051514 400.11209473 -49.06853027 399.53668945 -49.71557617 398.94384766 C-50.30314697 398.39905762 -50.89071777 397.85426758 -51.49609375 397.29296875 C-52.0264624 396.8033667 -52.55683105 396.31376465 -53.10327148 395.80932617 C-54.375 394.5 -54.375 394.5 -55.375 392.5 C-55.35405273 393.11931396 -55.33310547 393.73862793 -55.31152344 394.37670898 C-55.2274818 397.23013542 -55.17606555 400.08330036 -55.125 402.9375 C-55.09148437 403.91138672 -55.05796875 404.88527344 -55.0234375 405.88867188 C-54.90179362 414.98155158 -57.34211239 422.08187357 -63.55859375 428.8125 C-79.98980866 444.07762869 -99.38738663 445.93069405 -120.6875 446.1875 C-122.60353791 446.22074484 -124.51955453 446.25524085 -126.43554688 446.29101562 C-131.08191204 446.37508824 -135.72823585 446.4422782 -140.375 446.5 C-140.63474609 447.5926416 -140.89449219 448.6852832 -141.16210938 449.81103516 C-141.51402866 451.26211567 -141.86625867 452.71312084 -142.21875 454.1640625 C-142.47350098 455.24119507 -142.47350098 455.24119507 -142.73339844 456.34008789 C-143.95997326 461.35242285 -145.66165142 465.6953319 -148.1796875 470.21875 C-149.40909482 472.56506985 -150.18025103 474.86004201 -151 477.375 C-153.70457718 484.36274431 -159.09492468 489.37878081 -164.375 494.5 C-164.98601562 495.09425781 -165.59703125 495.68851562 -166.2265625 496.30078125 C-173.49774793 502.37204199 -185.3643942 502.26560703 -194.375 501.5 C-196.3828864 500.85747635 -198.38382592 500.19258229 -200.375 499.5 C-204.62003564 499.03676713 -208.22514345 499.07505301 -212.25 500.5625 C-216.45306369 504.39470513 -217.39437782 509.48791732 -218.75 514.8125 C-221.60187549 525.49248271 -227.3239019 534.09132309 -234.375 542.5 C-238.64866285 544.63683143 -243.74699356 544.06546223 -248.375 543.5 C-255.4296592 540.91297342 -261.23466815 536.28707626 -266.953125 531.515625 C-269.33290352 529.53503513 -271.77541408 527.67248288 -274.25 525.8125 C-278.70410194 522.34994726 -282.33346898 519.22842063 -283.375 513.5 C-283.55853635 509.20309023 -283.48920712 504.91552237 -283.40332031 500.6171875 C-283.37532457 498.52426409 -283.4010594 496.43656265 -283.4296875 494.34375 C-283.39902519 484.77824564 -281.30074208 478.45025798 -274.375 471.5 C-273.82199219 470.92378906 -273.26898438 470.34757812 -272.69921875 469.75390625 C-267.53586917 465.56387774 -261.16768837 465.95545736 -254.80908203 466.12646484 C-250.50118501 466.18238068 -250.50118501 466.18238068 -246.78271484 464.26904297 C-242.67351866 459.47974547 -241.1153345 454.95533541 -239.875 448.875 C-239.6171875 447.63363281 -239.359375 446.39226562 -239.09375 445.11328125 C-238.66279657 442.94680342 -238.24250613 440.77810324 -237.84375 438.60546875 C-236.41405516 430.84937424 -234.76452063 424.69148551 -228.375 419.5 C-224.78050941 417.35291944 -221.10684128 415.3965095 -217.375 413.5 C-216.71242188 413.13390625 -216.04984375 412.7678125 -215.3671875 412.390625 C-208.78644582 409.44864637 -200.832367 409.43355297 -193.75 409.125 C-186.18917669 408.68298264 -179.61988442 407.42039598 -173.875 402.25 C-173.38 401.6725 -172.885 401.095 -172.375 400.5 C-171.715 400.5 -171.055 400.5 -170.375 400.5 C-168.07434976 393.76238145 -166.25545111 387.41715258 -165.5625 380.3125 C-163.85170975 367.26933226 -159.47354606 359.02567517 -149.375 350.5 C-148.715 350.17 -148.055 349.84 -147.375 349.5 C-146.941875 348.736875 -146.50875 347.97375 -146.0625 347.1875 C-144.16064914 344.15862641 -142.35517111 342.4625517 -139.375 340.5 C-138.055 340.5 -136.735 340.5 -135.375 340.5 C-142.73723733 327.00256489 -151.09513333 316.36738287 -162.76171875 306.4765625 C-176.66580667 294.38415323 -188.67657735 279.43107333 -190.69116211 260.53442383 C-190.84879999 257.41168052 -190.89326916 254.31413575 -190.875 251.1875 C-190.87072998 250.0639209 -190.86645996 248.9403418 -190.86206055 247.78271484 C-190.54207206 231.72901661 -186.88226564 215.98599652 -179.44018555 201.70629883 C-176.96115717 196.89510813 -175.03396191 192.06476525 -173.3125 186.9375 C-168.3714622 172.37651063 -168.3714622 172.37651063 -164.5 167.375 C-164.02820313 166.75367188 -163.55640625 166.13234375 -163.0703125 165.4921875 C-159.35755575 161.12927058 -155.21183264 157.45184104 -150.75 153.875 C-140.19398543 145.40126775 -138.05345961 136.60623339 -135.6875 123.4375 C-135.47544922 122.31794922 -135.26339844 121.19839844 -135.04492188 120.04492188 C-134.14954184 115.22907658 -133.32441848 110.45102534 -132.8515625 105.57421875 C-132.49035524 101.96995381 -131.67260944 98.79602011 -130.4375 95.375 C-129.33563738 92.25043242 -128.29528535 89.20239864 -127.4375 86 C-123.2729789 72.28157755 -116.34241942 59.83658311 -106.375 49.5 C-105.88 48.943125 -105.385 48.38625 -104.875 47.8125 C-92.09646245 34.01167944 -73.29524813 24.28302296 -55.984375 17.58984375 C-53.15302744 16.4072899 -50.47176127 15.04105147 -47.75 13.625 C-41.20894245 10.29133361 -34.45341203 7.71703511 -27.53320312 5.29394531 C-25.98331762 4.72378381 -24.45203621 4.10206886 -22.93554688 3.44824219 C-15.22896706 0.26878255 -8.27803137 -0.10390834 0 0 Z " fill="#FEFEFE" transform="translate(283.375,-0.5)"/>
<path d="M0 0 C1.83691406 -0.02320312 1.83691406 -0.02320312 3.7109375 -0.046875 C19.47200121 0.01990917 32.74093873 5.23014839 44.5625 15.5625 C55.14061274 24.66573901 65.14305429 26.6009495 78.74047852 25.73632812 C81.28185747 25.41762689 83.32519526 24.61118512 85.625 23.5 C86.53636719 23.12101562 87.44773437 22.74203125 88.38671875 22.3515625 C89.35222656 21.94679688 90.31773437 21.54203125 91.3125 21.125 C95.95463397 19.18508862 100.61458136 17.30146173 105.296875 15.4609375 C107.43888938 14.57681747 109.48444009 13.58516728 111.5625 12.5625 C135.6953079 2.02800473 160.31115949 3.21744323 184.625 12.5 C188.63528895 14.13146232 192.50940421 15.94056998 196.375 17.890625 C199.49407039 19.43516466 202.61602423 20.6611978 205.875 21.875 C219.17407896 27.33424506 229.06714394 38.48755923 234.625 51.5 C235.32881157 53.48723268 235.9961811 55.48777953 236.625 57.5 C239.02357783 64.47123607 241.80112418 72.52243063 248.390625 76.58984375 C250.42927677 77.51471479 250.42927677 77.51471479 253.625 78.5 C254.388125 78.850625 255.15125 79.20125 255.9375 79.5625 C262.29802532 81.7812879 268.96687534 82.54907376 275.625 83.375 C285.1856378 84.7186572 292.57556385 88.354539 300.90234375 93.07421875 C303.4681412 94.4178573 305.95301685 95.37532972 308.6875 96.3125 C318.5340269 100.11044609 325.36698024 108.65696677 330.625 117.5 C330.95242188 118.04978516 331.27984375 118.59957031 331.6171875 119.16601562 C343.47297853 139.55708479 344.21603108 159.49603757 343.35351562 182.5715332 C343.33027725 183.49276978 343.30703888 184.41400635 343.28309631 185.36315918 C343.23896377 187.10099279 343.17048458 188.83845298 343.07273865 190.57409668 C342.91734915 198.11280845 346.30810894 202.03549245 351.34786987 207.29954529 C352.93281146 208.89811885 354.55467331 210.45046614 356.1875 212 C360.76244522 216.46427144 364.81312121 220.68276453 367.625 226.5 C368.49125 228.2634375 368.49125 228.2634375 369.375 230.0625 C371.86585075 236.91233957 371.89009695 244.14853534 372.23046875 251.359375 C372.38111484 254.25801363 372.53188665 257.06803808 373.14453125 259.91015625 C376.08927807 275.78305986 373.61368669 294.57777166 368.55859375 309.6875 C367.80338487 311.96260626 367.19861949 314.16345378 366.6875 316.5 C364.20122828 326.65942067 360.04306576 335.27876339 353.625 343.5 C352.861875 344.53125 352.09875 345.5625 351.3125 346.625 C350.755625 347.24375 350.19875 347.8625 349.625 348.5 C348.965 348.5 348.305 348.5 347.625 348.5 C347.295 349.49 346.965 350.48 346.625 351.5 C345.64851983 352.52297922 344.64368662 353.51904252 343.625 354.5 C343.109375 355.2425 342.59375 355.985 342.0625 356.75 C333.27246525 366.66696228 322.70457217 369.54736471 309.89453125 370.37695312 C308.77433594 370.43818359 307.65414062 370.49941406 306.5 370.5625 C292.23472331 371.38581025 284.8438456 372.85927546 274.625 383.5 C270.49461404 388.19058001 267.98900134 392.75885389 265.625 398.5 C264.0625 400.1875 264.0625 400.1875 262.625 401.5 C261.44925289 403.59989652 261.44925289 403.59989652 260.625 405.5 C259.965 405.5 259.305 405.5 258.625 405.5 C258.625 406.16 258.625 406.82 258.625 407.5 C257.965 407.5 257.305 407.5 256.625 407.5 C256.295 408.49 255.965 409.48 255.625 410.5 C253.953125 412.1484375 253.953125 412.1484375 251.875 413.875 C249.50814026 415.87675904 247.2932198 417.84007471 245.125 420.0625 C238.41036838 426.60926583 232.27007389 430.75640491 222.59814453 430.74291992 C220.84439011 430.74753487 220.84439011 430.74753487 219.0552063 430.75224304 C217.80206635 430.74505753 216.54892639 430.73787201 215.2578125 430.73046875 C213.95029022 430.73001053 212.64276794 430.72955231 211.29562378 430.7290802 C208.5267809 430.72751915 205.75806796 430.7192689 202.98925781 430.70581055 C199.48840942 430.68898584 195.98770401 430.68510282 192.48682022 430.68559456 C153.44256036 430.68469295 153.44256036 430.68469295 140.625 426.75 C139.76261719 426.51023437 138.90023438 426.27046875 138.01171875 426.0234375 C130.16145366 423.71243382 120.93574598 419.46611897 116.25 412.4375 C113.29805027 408.91786762 109.63821783 407.83609091 105.26171875 407.10546875 C98.05955565 406.62383109 94.17516228 409.21353587 88.625 413.5 C83.50882667 417.11851159 78.82247957 419.28608488 72.7265625 420.82421875 C70.43638821 421.3841467 70.43638821 421.3841467 68.625 423.5 C66.5411796 424.22777356 64.43245418 424.88538135 62.3125 425.5 C57.61038448 426.87178069 57.61038448 426.87178069 53.015625 428.5546875 C36.76984311 434.97867315 17.17243616 432.8877484 1.51074219 426.26074219 C-1.37174243 425.09789625 -4.33043024 424.24390144 -7.3125 423.375 C-12.01089522 421.96489633 -16.51892873 420.3235494 -21.0390625 418.421875 C-23.33625222 417.51529177 -25.62357135 416.8525756 -28 416.1875 C-33.24442594 414.44543851 -36.45259362 411.287814 -40.375 407.5 C-41.56511348 406.40472583 -42.75807118 405.31253789 -43.953125 404.22265625 C-45.24001194 403.04473892 -46.52646724 401.86634985 -47.8125 400.6875 C-48.44051514 400.11209473 -49.06853027 399.53668945 -49.71557617 398.94384766 C-50.30314697 398.39905762 -50.89071777 397.85426758 -51.49609375 397.29296875 C-52.0264624 396.8033667 -52.55683105 396.31376465 -53.10327148 395.80932617 C-54.375 394.5 -54.375 394.5 -55.375 392.5 C-55.35405273 393.11931396 -55.33310547 393.73862793 -55.31152344 394.37670898 C-55.2274818 397.23013542 -55.17606555 400.08330036 -55.125 402.9375 C-55.09148437 403.91138672 -55.05796875 404.88527344 -55.0234375 405.88867188 C-54.90179362 414.98155158 -57.34211239 422.08187357 -63.55859375 428.8125 C-79.98980866 444.07762869 -99.38738663 445.93069405 -120.6875 446.1875 C-122.60353791 446.22074484 -124.51955453 446.25524085 -126.43554688 446.29101562 C-131.08191204 446.37508824 -135.72823585 446.4422782 -140.375 446.5 C-140.63474609 447.5926416 -140.89449219 448.6852832 -141.16210938 449.81103516 C-141.51402866 451.26211567 -141.86625867 452.71312084 -142.21875 454.1640625 C-142.47350098 455.24119507 -142.47350098 455.24119507 -142.73339844 456.34008789 C-143.95997326 461.35242285 -145.66165142 465.6953319 -148.1796875 470.21875 C-149.40909482 472.56506985 -150.18025103 474.86004201 -151 477.375 C-153.70457718 484.36274431 -159.09492468 489.37878081 -164.375 494.5 C-164.98601562 495.09425781 -165.59703125 495.68851562 -166.2265625 496.30078125 C-173.49774793 502.37204199 -185.3643942 502.26560703 -194.375 501.5 C-196.3828864 500.85747635 -198.38382592 500.19258229 -200.375 499.5 C-204.62003564 499.03676713 -208.22514345 499.07505301 -212.25 500.5625 C-216.45306369 504.39470513 -217.39437782 509.48791732 -218.75 514.8125 C-221.60187549 525.49248271 -227.3239019 534.09132309 -234.375 542.5 C-238.64866285 544.63683143 -243.74699356 544.06546223 -248.375 543.5 C-255.4296592 540.91297342 -261.23466815 536.28707626 -266.953125 531.515625 C-269.33290352 529.53503513 -271.77541408 527.67248288 -274.25 525.8125 C-278.70410194 522.34994726 -282.33346898 519.22842063 -283.375 513.5 C-283.55853635 509.20309023 -283.48920712 504.91552237 -283.40332031 500.6171875 C-283.37532457 498.52426409 -283.4010594 496.43656265 -283.4296875 494.34375 C-283.39902519 484.77824564 -281.30074208 478.45025798 -274.375 471.5 C-273.82199219 470.92378906 -273.26898438 470.34757812 -272.69921875 469.75390625 C-267.53586917 465.56387774 -261.16768837 465.95545736 -254.80908203 466.12646484 C-250.50118501 466.18238068 -250.50118501 466.18238068 -246.78271484 464.26904297 C-242.67351866 459.47974547 -241.1153345 454.95533541 -239.875 448.875 C-239.6171875 447.63363281 -239.359375 446.39226562 -239.09375 445.11328125 C-238.66279657 442.94680342 -238.24250613 440.77810324 -237.84375 438.60546875 C-236.41405516 430.84937424 -234.76452063 424.69148551 -228.375 419.5 C-224.78050941 417.35291944 -221.10684128 415.3965095 -217.375 413.5 C-216.71242188 413.13390625 -216.04984375 412.7678125 -215.3671875 412.390625 C-208.78644582 409.44864637 -200.832367 409.43355297 -193.75 409.125 C-186.18917669 408.68298264 -179.61988442 407.42039598 -173.875 402.25 C-173.38 401.6725 -172.885 401.095 -172.375 400.5 C-171.715 400.5 -171.055 400.5 -170.375 400.5 C-168.07434976 393.76238145 -166.25545111 387.41715258 -165.5625 380.3125 C-163.85170975 367.26933226 -159.47354606 359.02567517 -149.375 350.5 C-148.715 350.17 -148.055 349.84 -147.375 349.5 C-146.941875 348.736875 -146.50875 347.97375 -146.0625 347.1875 C-144.16064914 344.15862641 -142.35517111 342.4625517 -139.375 340.5 C-138.055 340.5 -136.735 340.5 -135.375 340.5 C-142.73723733 327.00256489 -151.09513333 316.36738287 -162.76171875 306.4765625 C-176.66580667 294.38415323 -188.67657735 279.43107333 -190.69116211 260.53442383 C-190.84879999 257.41168052 -190.89326916 254.31413575 -190.875 251.1875 C-190.87072998 250.0639209 -190.86645996 248.9403418 -190.86206055 247.78271484 C-190.54207206 231.72901661 -186.88226564 215.98599652 -179.44018555 201.70629883 C-176.96115717 196.89510813 -175.03396191 192.06476525 -173.3125 186.9375 C-168.3714622 172.37651063 -168.3714622 172.37651063 -164.5 167.375 C-164.02820313 166.75367188 -163.55640625 166.13234375 -163.0703125 165.4921875 C-159.35755575 161.12927058 -155.21183264 157.45184104 -150.75 153.875 C-140.19398543 145.40126775 -138.05345961 136.60623339 -135.6875 123.4375 C-135.47544922 122.31794922 -135.26339844 121.19839844 -135.04492188 120.04492188 C-134.14954184 115.22907658 -133.32441848 110.45102534 -132.8515625 105.57421875 C-132.49035524 101.96995381 -131.67260944 98.79602011 -130.4375 95.375 C-129.33563738 92.25043242 -128.29528535 89.20239864 -127.4375 86 C-123.2729789 72.28157755 -116.34241942 59.83658311 -106.375 49.5 C-105.88 48.943125 -105.385 48.38625 -104.875 47.8125 C-92.09646245 34.01167944 -73.29524813 24.28302296 -55.984375 17.58984375 C-53.15302744 16.4072899 -50.47176127 15.04105147 -47.75 13.625 C-41.20894245 10.29133361 -34.45341203 7.71703511 -27.53320312 5.29394531 C-25.98331762 4.72378381 -24.45203621 4.10206886 -22.93554688 3.44824219 C-15.22896706 0.26878255 -8.27803137 -0.10390834 0 0 Z M-80.41796875 62.203125 C-96.95990677 81.61761513 -106.88490312 104.57115588 -106.5625 130.3125 C-106.56185547 131.30958984 -106.56121094 132.30667969 -106.56054688 133.33398438 C-106.53150042 138.1847429 -106.25683041 142.7199193 -105.375 147.5 C-105.31111612 149.45740193 -105.28861831 151.41670147 -105.3125 153.375 C-105.32152344 154.34179688 -105.33054688 155.30859375 -105.33984375 156.3046875 C-105.35144531 157.02914062 -105.36304688 157.75359375 -105.375 158.5 C-105.86790527 158.76103516 -106.36081055 159.02207031 -106.86865234 159.29101562 C-116.31253429 164.32481408 -125.43592165 169.22251152 -133.375 176.5 C-134.1278125 177.17289063 -134.880625 177.84578125 -135.65625 178.5390625 C-152.3847771 194.2936685 -161.91949016 216.41842813 -162.84545898 239.3059082 C-163.16377646 263.62168002 -153.07865935 286.35366533 -136.27734375 303.68359375 C-121.27756759 318.5523675 -100.38833093 328.12722997 -79.12109375 328.54418945 C-75.99098461 328.52150274 -72.86339481 328.4574077 -69.734375 328.37304688 C-61.96725611 328.26152574 -61.96725611 328.26152574 -59.375 330.5 C-58.28515625 333.08203125 -58.28515625 333.08203125 -57.4375 336.3125 C-53.20409337 351.25296618 -47.44934041 364.58077009 -37.375 376.5 C-36.70726562 377.31339844 -36.03953125 378.12679688 -35.3515625 378.96484375 C-22.47584937 394.04848603 -5.24672202 403.23892174 13.625 408.5 C14.93597656 408.86931641 14.93597656 408.86931641 16.2734375 409.24609375 C39.91097356 414.65215484 66.4105771 409.02155729 86.91601562 396.60888672 C92.13163158 393.22469705 96.94351135 389.1632885 101.3515625 384.78515625 C104.01933015 382.21011849 105.59552473 381.50399665 109.3125 381 C114.19673063 381.96022682 116.86525242 385.47873878 120.14208984 388.99291992 C134.16074644 403.77929881 155.60053649 411.9294873 175.6640625 412.66015625 C201.1566599 413.31061883 223.95301038 405.15643185 242.50219727 387.64428711 C250.37634431 379.95081899 255.7594098 371.91552312 260.65698242 362.12451172 C263.43565465 356.59467267 263.43565465 356.59467267 265.625 355.5 C267.06348278 355.25974219 268.50914177 355.06156887 269.95703125 354.88671875 C296.22848122 351.54501548 317.90368386 342.78167509 334.625 321.5 C348.25756898 302.62413526 353.61853906 280.01696224 350.0078125 256.9921875 C346.78047176 240.14554561 338.13953821 223.87551368 325.0625 212.75 C322.0913241 209.85140245 320.74322795 208.42893391 320.21484375 204.27734375 C320.46963155 201.06980961 320.87418997 197.92054403 321.35253906 194.73974609 C324.09120554 172.22672977 319.51078051 150.45904629 305.5625 132.375 C303.95460129 130.37809354 302.30355446 128.43978645 300.625 126.5 C300.05265625 125.82710938 299.4803125 125.15421875 298.890625 124.4609375 C290.38846937 115.24325392 279.05636401 109.2371821 267.625 104.5 C266.76132812 104.1390625 265.89765625 103.778125 265.0078125 103.40625 C259.44918328 101.2921484 253.85552117 100.49267675 247.92578125 100.328125 C247.08611816 100.30242432 246.24645508 100.27672363 245.38134766 100.25024414 C243.69261637 100.20899685 242.00319552 100.18931884 240.31396484 100.19311523 C236.10042035 100.09393765 234.16626345 99.90522397 230.703125 97.3125 C228.62522451 94.50030384 227.38131812 92.08784714 226.1875 88.8125 C222.44098537 79.28864974 217.11290357 71.36623501 210.625 63.5 C210.06554687 62.78199219 209.50609375 62.06398438 208.9296875 61.32421875 C196.47120336 46.1421266 178.32402223 37.32633648 159.625 32.5 C158.80644531 32.27441406 157.98789062 32.04882812 157.14453125 31.81640625 C133.2714643 26.31307603 109.04282646 32.28879062 88.44921875 44.671875 C83.67947202 47.75934591 79.11800678 51.14351502 74.984375 55.05078125 C72.42730407 57.43962383 70.88440343 58.46218336 67.3828125 58.97265625 C62.39305667 58.34504663 60.26337181 56.28766177 56.625 53 C42.84095617 41.28390856 27.29780127 35.06178408 9.625 31.5 C8.71105469 31.31308594 7.79710937 31.12617188 6.85546875 30.93359375 C-25.60515478 26.57672651 -57.91157599 38.51218526 -80.41796875 62.203125 Z " fill="#F9F9F9" transform="translate(283.375,-0.5)"/>
<path d="M0 0 C3.28543774 2.61439137 3.28543774 2.61439137 7.3762207 3.1496582 C9.43268065 1.64358144 9.43268065 1.64358144 11.6262207 -0.3503418 C24.15419585 -10.62691272 41.31427347 -18.46735541 57.3762207 -20.8503418 C58.39522461 -21.01469727 58.39522461 -21.01469727 59.43481445 -21.18237305 C88.79176315 -24.99826759 119.03525967 -18.80528758 142.89404297 -0.87524414 C151.80082752 6.07231437 159.79704256 13.65366523 166.5012207 22.7746582 C166.92862549 23.35497803 167.35603027 23.93529785 167.79638672 24.53320312 C170.04347649 27.74165652 171.69615612 30.75237899 172.97387695 34.4621582 C175.21328231 40.88702041 175.21328231 40.88702041 179.3762207 46.1496582 C185.71391099 48.86825613 192.7972285 49.14503896 199.59008789 49.80444336 C215.2436085 51.74398754 229.39097127 60.4147005 241.3762207 70.1496582 C242.23086914 70.82641602 243.08551758 71.50317383 243.96606445 72.20043945 C261.2220695 86.67585601 272.40839227 108.94240056 275.3762207 131.1496582 C275.3224427 133.58896014 275.20946243 136.02734975 275.05200195 138.4621582 C273.35928802 155.44541371 273.35928802 155.44541371 279.16015625 170.55078125 C281.29209189 172.60943876 283.5040164 174.56157219 285.74243164 176.50317383 C288.84877159 179.63365151 290.8098443 183.47501169 292.8762207 187.3371582 C293.28984863 188.10713135 293.70347656 188.87710449 294.12963867 189.67041016 C297.08542695 195.32297434 299.60276118 201.00996208 301.3762207 207.1496582 C301.58633789 207.8509082 301.79645508 208.5521582 302.01293945 209.2746582 C308.6855779 233.5043808 304.49297095 261.38194635 292.19726562 283.04956055 C287.95844761 290.20159594 283.22185805 297.20515173 277.3762207 303.1496582 C276.7162207 303.1496582 276.0562207 303.1496582 275.3762207 303.1496582 C275.3762207 303.8096582 275.3762207 304.4696582 275.3762207 305.1496582 C262.33596855 317.2392739 245.23923577 327.44620954 227.4387207 329.84887695 C217.76252689 330.87340115 217.76252689 330.87340115 209.7824707 335.75512695 C208.07253955 338.8213444 206.72748654 341.91233551 205.3762207 345.1496582 C203.23119195 348.31049368 200.81819069 351.21486434 198.3762207 354.1496582 C197.63178711 355.11258789 197.63178711 355.11258789 196.87231445 356.0949707 C184.73664406 371.12008643 167.2685492 379.98844061 149.3762207 386.1496582 C148.33852539 386.51188477 147.30083008 386.87411133 146.23168945 387.24731445 C121.52238205 395.0555908 94.02343241 390.52141423 71.32983398 379.16674805 C63.65309431 375.17008503 57.04340957 370.27422696 50.56762695 364.5559082 C48.53660047 362.96459743 48.53660047 362.96459743 46.42700195 363.19262695 C43.67752695 364.47571529 41.42252985 366.13430718 39.0012207 367.9621582 C38.02797852 368.68661133 37.05473633 369.41106445 36.05200195 370.1574707 C35.16899414 370.81489258 34.28598633 371.47231445 33.3762207 372.1496582 C31.39433726 373.50977429 29.39670201 374.84757025 27.3762207 376.1496582 C26.81032227 376.55958008 26.24442383 376.96950195 25.66137695 377.3918457 C19.89518427 381.37747582 14.18297498 382.74932912 7.3762207 384.1496582 C5.866863 384.50539908 4.35776613 384.86224776 2.84887695 385.2199707 C-26.82358113 391.9146682 -57.3588752 388.86049938 -83.47216797 372.62548828 C-106.78867372 357.50875302 -123.36700465 335.57759221 -131.6237793 309.1496582 C-131.6237793 308.1596582 -131.6237793 307.1696582 -131.6237793 306.1496582 C-132.43717773 306.18446289 -133.25057617 306.21926758 -134.08862305 306.25512695 C-160.08399931 306.86919096 -183.98161415 298.14259105 -203.6237793 281.1496582 C-204.6344043 280.3865332 -205.6450293 279.6234082 -206.6862793 278.8371582 C-226.25642984 260.93255238 -237.35108988 234.78884487 -238.8269043 208.53637695 C-239.16120472 182.15450167 -231.72535922 158.56723075 -214.6237793 138.1496582 C-214.04241211 137.42262695 -213.46104492 136.6955957 -212.86206055 135.9465332 C-205.09137322 126.62822471 -194.49874047 118.57610942 -183.6237793 113.1496582 C-182.9637793 113.1496582 -182.3037793 113.1496582 -181.6237793 113.1496582 C-181.78491211 111.89540039 -181.94604492 110.64114258 -182.11206055 109.34887695 C-185.83749144 75.60900109 -177.25043665 44.98233623 -156.1862793 18.3996582 C-152.3305161 13.80915429 -148.27287776 9.91441729 -143.6237793 6.1496582 C-142.7678418 5.41875977 -141.9119043 4.68786133 -141.0300293 3.93481445 C-126.83486647 -8.04733844 -110.66466245 -15.55077803 -92.6237793 -19.8503418 C-91.72272461 -20.07592773 -90.82166992 -20.30151367 -89.89331055 -20.53393555 C-59.3874376 -26.91683825 -24.59068319 -18.98800345 0 0 Z M-141.66674805 24.8527832 C-158.20868607 44.26727333 -168.13368242 67.22081409 -167.8112793 92.9621582 C-167.81063477 93.95924805 -167.80999023 94.95633789 -167.80932617 95.98364258 C-167.78027971 100.8344011 -167.5056097 105.3695775 -166.6237793 110.1496582 C-166.55989542 112.10706013 -166.53739761 114.06635967 -166.5612793 116.0246582 C-166.57030273 116.99145508 -166.57932617 117.95825195 -166.58862305 118.9543457 C-166.60022461 119.67879883 -166.61182617 120.40325195 -166.6237793 121.1496582 C-167.11668457 121.41069336 -167.60958984 121.67172852 -168.11743164 121.94067383 C-177.56131359 126.97447228 -186.68470095 131.87216972 -194.6237793 139.1496582 C-195.3765918 139.82254883 -196.1294043 140.49543945 -196.9050293 141.1887207 C-213.6335564 156.94332671 -223.16826946 179.06808633 -224.09423828 201.95556641 C-224.41255575 226.27133823 -214.32743865 249.00332353 -197.52612305 266.33325195 C-182.52634688 281.2020257 -161.63711023 290.77688818 -140.36987305 291.19384766 C-137.2397639 291.17116094 -134.11217411 291.10706591 -130.9831543 291.02270508 C-123.21603541 290.91118395 -123.21603541 290.91118395 -120.6237793 293.1496582 C-119.53393555 295.73168945 -119.53393555 295.73168945 -118.6862793 298.9621582 C-114.45287267 313.90262439 -108.69811971 327.23042829 -98.6237793 339.1496582 C-97.95604492 339.96305664 -97.28831055 340.77645508 -96.6003418 341.61450195 C-83.72462867 356.69814423 -66.49550132 365.88857994 -47.6237793 371.1496582 C-46.31280273 371.51897461 -46.31280273 371.51897461 -44.9753418 371.89575195 C-21.33780574 377.30181304 5.1617978 371.67121549 25.66723633 359.25854492 C30.88285228 355.87435526 35.69473205 351.81294671 40.1027832 347.43481445 C42.77055086 344.85977669 44.34674544 344.15365485 48.0637207 343.6496582 C52.94795133 344.60988502 55.61647312 348.12839698 58.89331055 351.64257812 C72.91196714 366.42895701 94.35175719 374.5791455 114.4152832 375.30981445 C139.9078806 375.96027704 162.70423108 367.80609006 181.25341797 350.29394531 C189.12756502 342.60047719 194.5106305 334.56518132 199.40820312 324.77416992 C202.18687536 319.24433088 202.18687536 319.24433088 204.3762207 318.1496582 C205.81470348 317.9094004 207.26036247 317.71122707 208.70825195 317.53637695 C234.97970192 314.19467368 256.65490456 305.43133329 273.3762207 284.1496582 C287.00878968 265.27379347 292.36975976 242.66662045 288.7590332 219.6418457 C285.53169247 202.79520382 276.89075892 186.52517189 263.8137207 175.3996582 C260.84254481 172.50106065 259.49444866 171.07859212 258.96606445 166.92700195 C259.22085226 163.71946782 259.62541067 160.57020224 260.10375977 157.3894043 C262.84242624 134.87638797 258.26200121 113.10870449 244.3137207 95.0246582 C242.705822 93.02775174 241.05477516 91.08944465 239.3762207 89.1496582 C238.80387695 88.47676758 238.2315332 87.80387695 237.6418457 87.1105957 C229.13969007 77.89291212 217.80758471 71.8868403 206.3762207 67.1496582 C205.51254883 66.7887207 204.64887695 66.4277832 203.7590332 66.0559082 C198.20040399 63.9418066 192.60674187 63.14233496 186.67700195 62.9777832 C185.83733887 62.95208252 184.99767578 62.92638184 184.13256836 62.89990234 C182.44383707 62.85865506 180.75441623 62.83897704 179.06518555 62.84277344 C174.85164105 62.74359586 172.91748415 62.55488218 169.4543457 59.9621582 C167.37644521 57.14996205 166.13253882 54.73750534 164.9387207 51.4621582 C161.19220608 41.93830794 155.86412427 34.01589321 149.3762207 26.1496582 C148.81676758 25.43165039 148.25731445 24.71364258 147.6809082 23.97387695 C135.22242406 8.79178481 117.07524294 -0.02400532 98.3762207 -4.8503418 C97.55766602 -5.07592773 96.73911133 -5.30151367 95.89575195 -5.53393555 C72.02268501 -11.03726577 47.79404717 -5.06155117 27.20043945 7.3215332 C22.43069272 10.40900411 17.86922748 13.79317322 13.7355957 17.70043945 C11.17852477 20.08928203 9.63562413 21.11184156 6.1340332 21.62231445 C1.14427737 20.99470483 -0.98540748 18.93731997 -4.6237793 15.6496582 C-18.40782313 3.93356676 -33.95097803 -2.28855772 -51.6237793 -5.8503418 C-52.53772461 -6.03725586 -53.45166992 -6.22416992 -54.39331055 -6.41674805 C-86.85393407 -10.77361529 -119.16035529 1.16184346 -141.66674805 24.8527832 Z " fill="#232223" transform="translate(344.623779296875,36.850341796875)"/>
<path d="M0 0 C1.83691406 -0.02320312 1.83691406 -0.02320312 3.7109375 -0.046875 C19.47200121 0.01990917 32.74093873 5.23014839 44.5625 15.5625 C55.14061274 24.66573901 65.14305429 26.6009495 78.74047852 25.73632812 C81.28185747 25.41762689 83.32519526 24.61118512 85.625 23.5 C86.53636719 23.12101562 87.44773437 22.74203125 88.38671875 22.3515625 C89.35222656 21.94679688 90.31773437 21.54203125 91.3125 21.125 C95.95463397 19.18508862 100.61458136 17.30146173 105.296875 15.4609375 C107.43888938 14.57681747 109.48444009 13.58516728 111.5625 12.5625 C135.6953079 2.02800473 160.31115949 3.21744323 184.625 12.5 C188.63528895 14.13146232 192.50940421 15.94056998 196.375 17.890625 C199.49407039 19.43516466 202.61602423 20.6611978 205.875 21.875 C219.17407896 27.33424506 229.06714394 38.48755923 234.625 51.5 C235.32881157 53.48723268 235.9961811 55.48777953 236.625 57.5 C239.02357783 64.47123607 241.80112418 72.52243063 248.390625 76.58984375 C250.42927677 77.51471479 250.42927677 77.51471479 253.625 78.5 C254.388125 78.850625 255.15125 79.20125 255.9375 79.5625 C262.29802532 81.7812879 268.96687534 82.54907376 275.625 83.375 C285.1856378 84.7186572 292.57556385 88.354539 300.90234375 93.07421875 C303.4681412 94.4178573 305.95301685 95.37532972 308.6875 96.3125 C318.5340269 100.11044609 325.36698024 108.65696677 330.625 117.5 C330.95242188 118.04978516 331.27984375 118.59957031 331.6171875 119.16601562 C343.47297853 139.55708479 344.21603108 159.49603757 343.35351562 182.5715332 C343.33027725 183.49276978 343.30703888 184.41400635 343.28309631 185.36315918 C343.23896377 187.10099279 343.17048458 188.83845298 343.07273865 190.57409668 C342.91734915 198.11280845 346.30810894 202.03549245 351.34786987 207.29954529 C352.93281146 208.89811885 354.55467331 210.45046614 356.1875 212 C360.76244522 216.46427144 364.81312121 220.68276453 367.625 226.5 C368.49125 228.2634375 368.49125 228.2634375 369.375 230.0625 C371.86585075 236.91233957 371.89009695 244.14853534 372.23046875 251.359375 C372.38111484 254.25801363 372.53188665 257.06803808 373.14453125 259.91015625 C376.08927807 275.78305986 373.61368669 294.57777166 368.55859375 309.6875 C367.80338487 311.96260626 367.19861949 314.16345378 366.6875 316.5 C364.20122828 326.65942067 360.04306576 335.27876339 353.625 343.5 C352.861875 344.53125 352.09875 345.5625 351.3125 346.625 C350.755625 347.24375 350.19875 347.8625 349.625 348.5 C348.965 348.5 348.305 348.5 347.625 348.5 C347.295 349.49 346.965 350.48 346.625 351.5 C345.64851983 352.52297922 344.64368662 353.51904252 343.625 354.5 C343.109375 355.2425 342.59375 355.985 342.0625 356.75 C333.27246525 366.66696228 322.70457217 369.54736471 309.89453125 370.37695312 C308.21423828 370.46879883 308.21423828 370.46879883 306.5 370.5625 C292.23472331 371.38581025 284.8438456 372.85927546 274.625 383.5 C270.49461404 388.19058001 267.98900134 392.75885389 265.625 398.5 C264.0625 400.1875 264.0625 400.1875 262.625 401.5 C261.44925289 403.59989652 261.44925289 403.59989652 260.625 405.5 C259.965 405.5 259.305 405.5 258.625 405.5 C258.625 406.16 258.625 406.82 258.625 407.5 C257.965 407.5 257.305 407.5 256.625 407.5 C256.295 408.49 255.965 409.48 255.625 410.5 C253.953125 412.1484375 253.953125 412.1484375 251.875 413.875 C249.50814026 415.87675904 247.2932198 417.84007471 245.125 420.0625 C238.41036838 426.60926583 232.27007389 430.75640491 222.59814453 430.74291992 C220.84439011 430.74753487 220.84439011 430.74753487 219.0552063 430.75224304 C217.80206635 430.74505753 216.54892639 430.73787201 215.2578125 430.73046875 C213.95029022 430.73001053 212.64276794 430.72955231 211.29562378 430.7290802 C208.5267809 430.72751915 205.75806796 430.7192689 202.98925781 430.70581055 C199.48840942 430.68898584 195.98770401 430.68510282 192.48682022 430.68559456 C153.44256036 430.68469295 153.44256036 430.68469295 140.625 426.75 C139.76261719 426.51023437 138.90023438 426.27046875 138.01171875 426.0234375 C130.16145366 423.71243382 120.93574598 419.46611897 116.25 412.4375 C112.76161002 408.27826579 107.83930644 407.39664183 102.6875 406.8125 C101.334229 406.69727993 99.98024008 406.5891201 98.625 406.5 C103.71590909 401.22727273 103.71590909 401.22727273 106.625 399.5 C110.74032466 399.82849598 113.38995055 402.54237532 116.4375 405.0625 C125.88356259 412.55160938 136.05049676 417.79249883 147.375 421.875 C148.03532227 422.11379883 148.69564453 422.35259766 149.37597656 422.59863281 C159.12603642 425.91586145 168.7453851 426.84290883 179 426.75 C180.65515625 426.73767334 180.65515625 426.73767334 182.34375 426.72509766 C206.85472992 426.38828898 228.55421485 417.87599816 247.625 402.5 C248.92824219 401.48679687 248.92824219 401.48679687 250.2578125 400.453125 C255.54246794 396.09284824 259.62496126 390.60632612 263.6875 385.125 C264.37457031 384.19816406 265.06164062 383.27132813 265.76953125 382.31640625 C267.68841773 379.6017613 267.68841773 379.6017613 268.76171875 376.71484375 C270.07922656 373.57593918 271.0715067 371.78786145 273.625 369.5 C279.22358027 367.42186425 285.28748705 366.83473688 291.16162109 365.93310547 C305.41963888 363.42629441 319.71726886 355.57716931 330.57421875 346.1640625 C332.5210647 344.58433607 334.3442879 343.51937019 336.625 342.5 C336.625 341.84 336.625 341.18 336.625 340.5 C337.285 340.5 337.945 340.5 338.625 340.5 C338.87894531 339.9328125 339.13289062 339.365625 339.39453125 338.78125 C340.77787845 336.2165682 342.42778344 334.22166982 344.3125 332 C361.57204384 310.58942663 366.71190742 284.89397455 364.30859375 257.953125 C363.88673131 255.07989974 363.32538613 252.31764535 362.625 249.5 C362.38007812 248.49453125 362.13515625 247.4890625 361.8828125 246.453125 C358.27493721 233.36260403 351.41416078 216.9446128 340.82958984 207.97924805 C337.41834807 204.84130157 335.79151511 202.6421117 335.11108398 197.97509766 C334.95806228 193.74720351 335.15748404 189.53484109 335.375 185.3125 C335.49620849 182.44443638 335.59526703 179.57663201 335.671875 176.70703125 C335.69051102 176.00991028 335.70914703 175.31278931 335.72834778 174.59454346 C335.80765457 167.95032053 334.49397656 161.86573747 332.625 155.5 C332.18933716 153.95783813 332.18933716 153.95783813 331.74487305 152.38452148 C324.78312104 128.58993941 308.18660729 109.69661368 287.0703125 97.28125 C275.95856009 91.53639841 262.78012479 86.56227976 250.1796875 86.4765625 C246.44448183 86.36389968 244.00811257 86.12478433 240.625 84.5 C237.006936 80.15157308 234.93645374 74.73071918 232.63818359 69.61328125 C221.34529706 46.058769 196.65401681 29.99007011 172.9375 21.3125 C143.8189709 12.19149285 112.63335378 15.33065215 85.66601562 29.36621094 C80.35861648 32.31448386 75.47427069 35.85765891 70.625 39.5 C69.84769531 40.08136719 69.07039063 40.66273437 68.26953125 41.26171875 C67.72683594 41.67035156 67.18414062 42.07898437 66.625 42.5 C66.13773437 42.0875 65.65046875 41.675 65.1484375 41.25 C40.26977385 20.98519761 9.75988073 14.24885631 -21.78271484 16.68603516 C-45.72590964 19.29792332 -69.15490974 30.91769556 -85.9375 48.0625 C-86.741875 48.866875 -87.54625 49.67125 -88.375 50.5 C-89.035 50.5 -89.695 50.5 -90.375 50.5 C-90.62121094 51.06203125 -90.86742187 51.6240625 -91.12109375 52.203125 C-92.59534585 54.90362417 -94.40395709 56.94029694 -96.4375 59.25 C-114.54794334 81.14558423 -120.60056758 107.19025165 -120.4375 135.0625 C-120.4324746 136.56314955 -120.42791353 138.06380072 -120.42382812 139.56445312 C-120.41290576 143.20966977 -120.39569856 146.85482422 -120.375 150.5 C-121.29579346 150.98041748 -122.21658691 151.46083496 -123.1652832 151.95581055 C-146.47383795 164.29092797 -164.18509686 185.15105616 -172.00048828 210.53125 C-174.14180482 218.03898944 -176.07351395 225.67392454 -176.375 233.5 C-176.4265625 234.64339844 -176.478125 235.78679687 -176.53125 236.96484375 C-177.16667539 263.89099485 -168.86882162 287.95578511 -151.375 308.5 C-150.41980469 309.74330078 -150.41980469 309.74330078 -149.4453125 311.01171875 C-141.44039112 320.63272803 -128.82473071 328.56681599 -117.5625 333.875 C-114.375 335.5 -114.375 335.5 -113.375 338.5 C-116.38384746 341.98655546 -118.50572655 343.07777751 -123 343.9375 C-128.18231859 345.08912635 -132.46695905 346.78852598 -137.12109375 349.31640625 C-140.4327526 351.0554576 -143.83051243 352.31850414 -147.375 353.5 C-147.705 354.16 -148.035 354.82 -148.375 355.5 C-149.035 355.17 -149.695 354.84 -150.375 354.5 C-150.375 353.51 -150.375 352.52 -150.375 351.5 C-149.385 350.84 -148.395 350.18 -147.375 349.5 C-146.694375 348.324375 -146.694375 348.324375 -146 347.125 C-144.13545404 344.11304114 -142.32666243 342.4437777 -139.375 340.5 C-138.055 340.5 -136.735 340.5 -135.375 340.5 C-142.73723733 327.00256489 -151.09513333 316.36738287 -162.76171875 306.4765625 C-176.66580667 294.38415323 -188.67657735 279.43107333 -190.69116211 260.53442383 C-190.84879999 257.41168052 -190.89326916 254.31413575 -190.875 251.1875 C-190.87072998 250.0639209 -190.86645996 248.9403418 -190.86206055 247.78271484 C-190.54207206 231.72901661 -186.88226564 215.98599652 -179.44018555 201.70629883 C-176.96115717 196.89510813 -175.03396191 192.06476525 -173.3125 186.9375 C-168.3714622 172.37651063 -168.3714622 172.37651063 -164.5 167.375 C-164.02820313 166.75367188 -163.55640625 166.13234375 -163.0703125 165.4921875 C-159.35755575 161.12927058 -155.21183264 157.45184104 -150.75 153.875 C-140.19398543 145.40126775 -138.05345961 136.60623339 -135.6875 123.4375 C-135.47544922 122.31794922 -135.26339844 121.19839844 -135.04492188 120.04492188 C-134.14954184 115.22907658 -133.32441848 110.45102534 -132.8515625 105.57421875 C-132.49035524 101.96995381 -131.67260944 98.79602011 -130.4375 95.375 C-129.33563738 92.25043242 -128.29528535 89.20239864 -127.4375 86 C-123.2729789 72.28157755 -116.34241942 59.83658311 -106.375 49.5 C-105.88 48.943125 -105.385 48.38625 -104.875 47.8125 C-92.09646245 34.01167944 -73.29524813 24.28302296 -55.984375 17.58984375 C-53.15302744 16.4072899 -50.47176127 15.04105147 -47.75 13.625 C-41.20894245 10.29133361 -34.45341203 7.71703511 -27.53320312 5.29394531 C-25.98331762 4.72378381 -24.45203621 4.10206886 -22.93554688 3.44824219 C-15.22896706 0.26878255 -8.27803137 -0.10390834 0 0 Z M-152.375 353.5 C-151.25 357.25 -151.25 357.25 -152.375 359.5 C-153.035 359.17 -153.695 358.84 -154.375 358.5 C-154.375 355.5 -154.375 355.5 -152.375 353.5 Z " fill="#F9FAFA" transform="translate(283.375,-0.5)"/>
<path d="M0 0 C10.99385967 10.99385967 16.76520724 22.74769754 17.125 38.1875 C16.89756138 52.41662848 12.05441002 64.16467851 2.265625 74.48828125 C-6.24186587 82.54872244 -16.28328386 88.3004907 -28.1875 88.8125 C-29.09242188 88.8640625 -29.99734375 88.915625 -30.9296875 88.96875 C-44.66045683 89.39672203 -56.10486118 85.5045773 -66.73046875 76.70703125 C-76.9847774 67.00236728 -83.14232512 54.92709213 -83.66015625 40.75146484 C-83.82567725 25.60924877 -78.69183627 12.92589095 -68.1875 1.8125 C-47.16480066 -15.62646402 -22.29532281 -15.30071173 0 0 Z " fill="#232222" transform="translate(204.1875,353.1875)"/>
<path d="M0 0 C6.5027173 5.93511768 10.68023944 13.32036697 12.74609375 21.87890625 C12.78734375 22.99265625 12.82859375 24.10640625 12.87109375 25.25390625 C12.92716797 26.42373047 12.92716797 26.42373047 12.984375 27.6171875 C13.32639398 39.47984566 9.36577937 50.79874814 1.24609375 59.62890625 C-7.29832935 67.48584704 -18.78414293 71.85123889 -30.35546875 71.56640625 C-43.04647961 70.1364332 -53.13333099 64.45904248 -61.3359375 54.83203125 C-68.07958906 45.13527737 -70.52015883 33.8746176 -69.12890625 22.25390625 C-65.88578331 10.81216853 -58.87353192 -0.0167058 -48.44140625 -6.12109375 C-31.48372596 -14.43995578 -14.38884215 -11.80149072 0 0 Z " fill="#232222" transform="translate(123.12890625,422.74609375)"/>
<path d="M0 0 C1.03125 0.5775 2.0625 1.155 3.125 1.75 C10.77238321 7.7349086 16.44511975 15.28933278 18 25 C18.91235049 36.42192628 16.48563127 46.16826837 9 55 C1.91068544 62.11744676 -7.05192649 66.05798075 -17.125 66.4375 C-27.70142699 65.89685197 -36.38829012 61.69600595 -43.8203125 54.15234375 C-50.5342665 45.93702818 -52.72580208 36.76949016 -52.3828125 26.296875 C-51.22773408 16.34905681 -44.68330932 7.46061 -36.94921875 1.3203125 C-26.20618213 -5.95653395 -11.15700265 -6.92503613 0 0 Z " fill="#FBFBFB" transform="translate(188,361)"/>
<path d="M0 0 C0.70898438 0.43570312 1.41796875 0.87140625 2.1484375 1.3203125 C7.20149882 4.75789697 10.21029487 8.60129938 13 14 C13.433125 14.804375 13.86625 15.60875 14.3125 16.4375 C16.17585804 23.38274361 14.99997285 28.55561388 12 35 C11.49765899 36.86892461 11.02002971 38.74460316 10.5625 40.625 C8.39117777 48.66327875 4.50269885 51.58725324 -2.46484375 55.765625 C-9.59301397 59.23635195 -19.3406358 59.36402728 -26.85546875 57.1640625 C-36.42798202 52.74141296 -42.50454319 45.9210038 -46.15234375 36.078125 C-49.01351348 25.68825521 -46.14932877 16.96122945 -41.25 7.6875 C-31.02063118 -4.53091275 -14.00007823 -8.70275133 0 0 Z " fill="#222122" transform="translate(54,474)"/>
<path d="M0 0 C5.50729715 5.17055906 9.00340509 11.30182392 9.375 18.9375 C8.91138554 27.12802206 5.56445569 34.18554431 -0.1875 39.9375 C-6.18119514 44.52841542 -11.87008532 46.55695413 -19.3984375 46.375 C-26.56116806 45.25143442 -33.25346431 41.72387794 -37.75 36 C-42.16405893 29.11198474 -44.30337541 23.12476563 -43.1875 14.9375 C-40.98047368 7.29395687 -36.46904841 0.71356414 -29.625 -3.4375 C-19.42554098 -8.25906245 -8.78742844 -6.977284 0 0 Z " fill="#FBFBFB" transform="translate(112.1875,433.0625)"/>
<path d="M0 0 C4.1796989 2.8497947 7.11864324 5.98092971 8.75 10.875 C9.11826224 16.49099916 8.96556007 20.05165989 5.75 24.875 C1.76634367 28.80554092 -1.37058015 31.02544094 -7 31.1875 C-12.73336632 31.10500552 -15.70023924 29.48563038 -19.72265625 25.3671875 C-22.94936642 21.50232573 -24.04346008 18.1796557 -23.734375 13.1484375 C-22.57631196 7.71301261 -19.53436221 4.04260201 -15.5 0.375 C-10.12850979 -2.10414933 -5.54620446 -1.91984 0 0 Z " fill="#F9F9F9" transform="translate(45.25,486.125)"/>
<path d="M0 0 C0.56976563 0.72058594 1.13953125 1.44117188 1.7265625 2.18359375 C9.33275603 11.73890142 9.33275603 11.73890142 19 19 C16 21 16 21 13.8125 20.625 C12.9153125 20.315625 12.9153125 20.315625 12 20 C11.34 21.98 10.68 23.96 10 26 C9.34 26 8.68 26 8 26 C7.64808594 25.21496094 7.29617187 24.42992187 6.93359375 23.62109375 C3.78899417 16.92958289 0.68340648 11.77540663 -5 7 C-2 6 -2 6 0 6 C0 4.02 0 2.04 0 0 Z " fill="#EDEDED" transform="translate(126,415)"/>
<path d="M0 0 C1.90688236 2.86032353 3.24542751 5.63670378 4.6875 8.75 C8.8220103 17.05916147 13.79957579 21.8161101 22 26 C22 26.33 22 26.66 22 27 C20.6078125 26.9071875 20.6078125 26.9071875 19.1875 26.8125 C16.01919312 26.66853545 16.01919312 26.66853545 14.30078125 28.51171875 C13.87152344 29.00285156 13.44226563 29.49398438 13 30 C12.69707031 29.33613281 12.39414063 28.67226563 12.08203125 27.98828125 C9.62830626 22.81658396 7.4307883 18.76617006 3 15 C2.236875 14.29875 1.47375 13.5975 0.6875 12.875 C-2.73885101 10.48452255 -6.04705494 9.33998138 -10 8 C-8 6 -8 6 -6.125 5.6875 C-3.02323079 4.68398643 -1.85635708 2.58564022 0 0 Z " fill="#EAEAEA" transform="translate(55,463)"/>
<path d="M0 0 C0.74121094 0.25394531 1.48242188 0.50789063 2.24609375 0.76953125 C11.39495477 3.7594283 20.50960546 5.49972206 30 7 C29.67 9.31 29.34 11.62 29 14 C25.7313999 12.93770497 22.55293687 11.81500836 19.375 10.5 C14.80458267 8.77872186 10.34084139 8.2421838 5.5 7.8125 C4.67757812 7.73064453 3.85515625 7.64878906 3.0078125 7.56445312 C1.00614225 7.36661362 -0.99681953 7.18191276 -3 7 C-2.505 6.21625 -2.01 5.4325 -1.5 4.625 C0.16537965 2.21447673 0.16537965 2.21447673 0 0 Z " fill="#E6E6E6" transform="translate(169,335)"/>
<path d="M0 0 C3.25257623 1.23373581 5.80031223 3.3009429 8.515625 5.421875 C9.06992187 5.84662109 9.62421875 6.27136719 10.1953125 6.70898438 C11.55651911 7.75335841 12.91168333 8.80559964 14.265625 9.859375 C13.605625 10.519375 12.945625 11.179375 12.265625 11.859375 C10.2421875 11.6875 10.2421875 11.6875 7.890625 11.109375 C7.11976563 10.92890625 6.34890625 10.7484375 5.5546875 10.5625 C3.265625 9.859375 3.265625 9.859375 1.2734375 8.8203125 C-1.03840942 7.71386436 -2.93944016 7.45892807 -5.484375 7.234375 C-6.68320312 7.12222656 -6.68320312 7.12222656 -7.90625 7.0078125 C-8.50953125 6.95882813 -9.1128125 6.90984375 -9.734375 6.859375 C-2.88562824 -0.23396986 -2.88562824 -0.23396986 0 0 Z " fill="#EFEFEF" transform="translate(391.734375,399.140625)"/>
<path d="M0 0 C0 0.66 0 1.32 0 2 C-1.73636719 2.81404297 -1.73636719 2.81404297 -3.5078125 3.64453125 C-5.04689333 4.36714847 -6.5859548 5.0898069 -8.125 5.8125 C-8.88554687 6.16892578 -9.64609375 6.52535156 -10.4296875 6.89257812 C-14.64827998 8.87458925 -18.84129128 10.89407242 -23 13 C-24 11 -24 11 -23.79296875 9.00390625 C-22.76739625 6.41218854 -21.82949971 6.04497987 -19.3125 4.9375 C-16.77265784 3.79817364 -14.46480085 2.68115795 -12.0625 1.25 C-7.96970102 -0.42053019 -4.36088454 -0.26165307 0 0 Z " fill="#F2F2F2" transform="translate(384,20)"/>
<path d="M0 0 C0.99 0 1.98 0 3 0 C2.32756786 3.06797166 1.29931605 5.76841545 0 8.625 C-0.350625 9.40101563 -0.70125 10.17703125 -1.0625 10.9765625 C-2.89874694 14.93979548 -2.89874694 14.93979548 -5.3125 16.375 C-8.75641228 18.45736557 -11.44739797 20.34219391 -12.75 24.25 C-12.8325 24.8275 -12.915 25.405 -13 26 C-15.64 26 -18.28 26 -21 26 C-20.34 25.484375 -19.68 24.96875 -19 24.4375 C-18.01 23.633125 -17.02 22.82875 -16 22 C-15.05833984 21.27103516 -15.05833984 21.27103516 -14.09765625 20.52734375 C-7.20757021 14.93328157 -3.14125103 8.24945363 0 0 Z " fill="#DFDEDE" transform="translate(134,464)"/>
<path d="M0 0 C5.28 0 10.56 0 16 0 C15.67 0.66 15.34 1.32 15 2 C12 3 12 3 8.75 3.125 C3.64818072 4.3154245 1.33457107 7.11811332 -2 11 C-2.99 10.67 -3.98 10.34 -5 10 C-4.67 8.35 -4.34 6.7 -4 5 C-2.02 5.495 -2.02 5.495 0 6 C0 4.02 0 2.04 0 0 Z " fill="#EEEEEE" transform="translate(382,378)"/>
<path d="M0 0 C0.99 0.33 1.98 0.66 3 1 C2.319375 1.61875 1.63875 2.2375 0.9375 2.875 C-4.49405088 8.30655088 -8.86925191 15.00185721 -12 22 C-12.5625 20.0625 -12.5625 20.0625 -13 18 C-12.67 17.67 -12.34 17.34 -12 17 C-11.76712992 15.31816052 -11.58735834 13.6287584 -11.4375 11.9375 C-11.35371094 11.01839844 -11.26992187 10.09929687 -11.18359375 9.15234375 C-11.12300781 8.44207031 -11.06242187 7.73179687 -11 7 C-7.125 6 -7.125 6 -6 6 C-5.67 4.68 -5.34 3.36 -5 2 C-4.34 2.33 -3.68 2.66 -3 3 C-2.67 2.67 -2.34 2.34 -2 2 C-1.34 1.34 -0.68 0.68 0 0 Z " fill="#ECECEC" transform="translate(137,351)"/>
<path d="M0 0 C0.99 0.33 1.98 0.66 3 1 C2.99476318 1.62865967 2.98952637 2.25731934 2.98413086 2.9050293 C1.21466763 23.03695052 1.21466763 23.03695052 7 41 C4 41 4 41 1.83691406 39.02270508 C-0.50108021 35.17545533 -0.50883515 31.99777949 -0.390625 27.63671875 C-0.38496521 26.84473587 -0.37930542 26.05275299 -0.37347412 25.23677063 C-0.35117308 22.71971906 -0.30099139 20.20411757 -0.25 17.6875 C-0.22992675 15.97593209 -0.21167742 14.26434176 -0.1953125 12.55273438 C-0.15132925 8.36793515 -0.08234769 4.184213 0 0 Z " fill="#DFDFDF" transform="translate(619,165)"/>
<path d="M0 0 C1.0625 1.875 1.0625 1.875 2 4 C1.67 4.66 1.34 5.32 1 6 C-0.32 6 -1.64 6 -3 6 C-3.33 7.65 -3.66 9.3 -4 11 C-5.65 11.33 -7.3 11.66 -9 12 C-9.33 13.65 -9.66 15.3 -10 17 C-10.5775 16.814375 -11.155 16.62875 -11.75 16.4375 C-14.20692525 15.95976454 -15.64397534 16.24270636 -18 17 C-15.01092743 13.81808403 -11.92651593 11.13115558 -8.4375 8.5 C-5.09766654 5.95616018 -2.42120094 3.473897 0 0 Z " fill="#EBEAEB" transform="translate(540,393)"/>
<path d="M0 0 C0.33 0 0.66 0 1 0 C1.12375 0.928125 1.2475 1.85625 1.375 2.8125 C1.81533082 6.13925235 1.81533082 6.13925235 4 9 C5.32 9 6.64 9 8 9 C8.33 10.65 8.66 12.3 9 14 C9.66 14 10.32 14 11 14 C12 16 12 16 13 19 C13.66 19.33 14.32 19.66 15 20 C9.54094483 19.61006749 6.88149502 17.79523957 3 14 C-0.65608518 9.61269778 -0.32006914 5.44117542 0 0 Z " fill="#E6E5E5" transform="translate(22,497)"/>
<path d="M0 0 C-0.66 0.66 -1.32 1.32 -2 2 C-4.625 1.625 -4.625 1.625 -7 1 C-7 0.34 -7 -0.32 -7 -1 C-7.66 -1 -8.32 -1 -9 -1 C-8.67 -0.01 -8.34 0.98 -8 2 C-8.73605469 1.97679687 -9.47210938 1.95359375 -10.23046875 1.9296875 C-11.69419922 1.90261719 -11.69419922 1.90261719 -13.1875 1.875 C-14.63189453 1.84019531 -14.63189453 1.84019531 -16.10546875 1.8046875 C-19.03029169 1.85276215 -19.03029169 1.85276215 -21.67578125 3.0703125 C-24 4 -24 4 -27 3 C-18.31951538 -2.27637301 -9.72371588 -3.98921677 0 0 Z " fill="#F6F6F6" transform="translate(106,429)"/>
<path d="M0 0 C3.61846759 7.23693518 4.30232229 14.98845941 4 23 C2.68 23 1.36 23 0 23 C0 15.41 0 7.82 0 0 Z " fill="#F2F2F2" transform="translate(601,156)"/>
<path d="M0 0 C0.99 0.66 1.98 1.32 3 2 C3 2.99 3 3.98 3 5 C2.01 5.66 1.02 6.32 0 7 C-0.73606499 10.56769552 -0.73606499 10.56769552 -1 14 C-3 12.625 -3 12.625 -5 11 C-5 10.34 -5 9.68 -5 9 C-6.32 8.34 -7.64 7.68 -9 7 C-9 6.01 -9 5.02 -9 4 C-6.03 4.495 -6.03 4.495 -3 5 C-2.01 3.35 -1.02 1.7 0 0 Z " fill="#E8E7E7" transform="translate(212,347)"/>
<path d="M0 0 C3.3 0 6.6 0 10 0 C10 1.65 10 3.3 10 5 C8.02 5.99 8.02 5.99 6 7 C5.67 6.34 5.34 5.68 5 5 C3.35 5.33 1.7 5.66 0 6 C-1.125 2.25 -1.125 2.25 0 0 Z " fill="#FDFDFD" transform="translate(201,346)"/>
<path d="M0 0 C0.66 0 1.32 0 2 0 C2.165 0.99 2.33 1.98 2.5 3 C3.9442513 8.27043944 8.05059021 11.46390053 12 15 C10 17 10 17 7.375 17.125 C6.59125 17.08375 5.8075 17.0425 5 17 C4.67 15.35 4.34 13.7 4 12 C3.01 11.67 2.02 11.34 1 11 C-0.28317892 7.15046324 -0.06643637 4.05261865 0 0 Z " fill="#E7E6E6" transform="translate(601,201)"/>
<path d="M0 0 C4.29 1.32 8.58 2.64 13 4 C13 4.99 13 5.98 13 7 C7.72 7 2.44 7 -3 7 C-2.01 5.35 -1.02 3.7 0 2 C0 1.34 0 0.68 0 0 Z " fill="#EBEBEB" transform="translate(169,335)"/>
<path d="M0 0 C0.99 0.33 1.98 0.66 3 1 C3.33 1.99 3.66 2.98 4 4 C2.61240749 5.61130023 1.21454377 7.21375841 -0.1875 8.8125 C-0.96480469 9.70582031 -1.74210938 10.59914063 -2.54296875 11.51953125 C-4.89417119 13.8931617 -7.06791184 15.43240047 -10 17 C-10 13 -10 13 -7.8125 10.4375 C-5 8 -5 8 -2.1875 6.5 C-1.1046875 5.7575 -1.1046875 5.7575 0 5 C0.41780879 2.37305578 0.41780879 2.37305578 0 0 Z " fill="#EBEAEA" transform="translate(612,319)"/>
<path d="M0 0 C1.32 0 2.64 0 4 0 C5.70929814 5.12789443 5.61738099 9.41244889 3.6875 14.375 C2 17 2 17 -1 19 C-1.66 18.34 -2.32 17.68 -3 17 C-1 15 -1 15 1 14 C1.46954261 10.95418731 1.46954261 10.95418731 1.625 7.4375 C1.69976562 6.23996094 1.77453125 5.04242188 1.8515625 3.80859375 C1.90054688 2.88175781 1.94953125 1.95492188 2 1 C1.34 0.67 0.68 0.34 0 0 Z " fill="#ECECEC" transform="translate(49,494)"/>
<path d="M0 0 C1.65 0 3.3 0 5 0 C5 3.52599722 4.46519566 3.97292161 2.1875 6.5 C1.40439453 7.38171875 1.40439453 7.38171875 0.60546875 8.28125 C-0.8972639 9.89001488 -2.43173454 11.45528207 -4 13 C-4.82638376 10.10765685 -5 8.11257569 -5 5 C-3.68 5 -2.36 5 -1 5 C-0.67 3.35 -0.34 1.7 0 0 Z " fill="#EEEEEE" transform="translate(62,421)"/>
<path d="M0 0 C-4.24260186 4.24260186 -11.1699067 5.18966173 -17 5.3125 C-20.70736086 5.29263914 -20.70736086 5.29263914 -23 3 C-19.54375231 2.30171869 -16.08474638 1.61821633 -12.625 0.9375 C-11.14773438 0.63875977 -11.14773438 0.63875977 -9.640625 0.33398438 C-8.69960938 0.15029297 -7.75859375 -0.03339844 -6.7890625 -0.22265625 C-5.91975098 -0.39547119 -5.05043945 -0.56828613 -4.15478516 -0.74633789 C-2 -1 -2 -1 0 0 Z " fill="#DFDFDF" transform="translate(354,421)"/>
<path d="M0 0 C2.86453858 3.41016497 4.34703566 6.90694544 6 11 C5.236875 10.62875 4.47375 10.2575 3.6875 9.875 C2.800625 9.58625 1.91375 9.2975 1 9 C0.01 9.66 -0.98 10.32 -2 11 C-2.99 9.02 -3.98 7.04 -5 5 C-3.35 4.67 -1.7 4.34 0 4 C0 2.68 0 1.36 0 0 Z " fill="#E9E9E9" transform="translate(217,358)"/>
<path d="M0 0 C7.26 0 14.52 0 22 0 C18.9788566 2.0140956 18.19339983 2.26836596 14.76953125 2.4140625 C13.96708984 2.45273437 13.16464844 2.49140625 12.33789062 2.53125 C11.50451172 2.5621875 10.67113281 2.593125 9.8125 2.625 C8.96751953 2.66367187 8.12253906 2.70234375 7.25195312 2.7421875 C5.16832476 2.83636279 3.08419247 2.91926675 1 3 C0.67 2.01 0.34 1.02 0 0 Z " fill="#F4F3F3" transform="translate(83,410)"/>
<path d="M0 0 C0.66 1.32 1.32 2.64 2 4 C1.34 4 0.68 4 0 4 C-0.33 4.66 -0.66 5.32 -1 6 C-1.66 6.28875 -2.32 6.5775 -3 6.875 C-3.99 7.431875 -3.99 7.431875 -5 8 C-5.144375 8.66 -5.28875 9.32 -5.4375 10 C-5.623125 10.66 -5.80875 11.32 -6 12 C-8.5625 13.25 -8.5625 13.25 -11 14 C-11 14.99 -11 15.98 -11 17 C-11.99 16.67 -12.98 16.34 -14 16 C-12.60770997 14.26797907 -11.21099444 12.53951516 -9.8125 10.8125 C-9.03519531 9.84957031 -8.25789062 8.88664062 -7.45703125 7.89453125 C-5.08191073 5.09649579 -2.62917223 2.5544533 0 0 Z " fill="#DEDEDE" transform="translate(209,56)"/>
<path d="M0 0 C0.66 0.33 1.32 0.66 2 1 C1.5 3.375 1.5 3.375 0 6 C-1.9467118 6.55156834 -3.90210254 7.09108862 -5.890625 7.46484375 C-9.14770061 8.2911759 -11.3303957 9.99779678 -14 12 C-14.66 11.67 -15.32 11.34 -16 11 C-14.27278316 9.72651788 -12.54313762 8.45632943 -10.8125 7.1875 C-9.84957031 6.47980469 -8.88664062 5.77210937 -7.89453125 5.04296875 C-5.30857667 3.21779433 -2.80897441 1.46027858 0 0 Z " fill="#E7E7E7" transform="translate(377,41)"/>
<path d="M0 0 C1.93166016 0.01740234 1.93166016 0.01740234 3.90234375 0.03515625 C5.19269531 0.04417969 6.48304687 0.05320312 7.8125 0.0625 C8.81152344 0.07410156 9.81054688 0.08570313 10.83984375 0.09765625 C8.85984375 1.08765625 8.85984375 1.08765625 6.83984375 2.09765625 C7.16984375 2.75765625 7.49984375 3.41765625 7.83984375 4.09765625 C6.2156563 4.17856596 4.5903263 4.2368062 2.96484375 4.28515625 C2.05992188 4.31996094 1.155 4.35476563 0.22265625 4.390625 C-0.95683594 4.24560547 -0.95683594 4.24560547 -2.16015625 4.09765625 C-2.82015625 3.10765625 -3.48015625 2.11765625 -4.16015625 1.09765625 C-3.16015625 0.09765625 -3.16015625 0.09765625 0 0 Z " fill="#2C2C2C" transform="translate(34.16015625,469.90234375)"/>
<path d="M0 0 C0.6875 2.0625 0.6875 2.0625 1 4 C-3.01804691 4.84098656 -6.01803543 5.05404945 -10 4 C-10 3.34 -10 2.68 -10 2 C-3.375 -1.125 -3.375 -1.125 0 0 Z " fill="#EDECED" transform="translate(194,438)"/>
<path d="M0 0 C4.46839215 -0.21278058 7.82262526 0.40861915 12 2 C10.9375 3.5 10.9375 3.5 9 5 C5.3125 5.1875 5.3125 5.1875 2 5 C2 4.01 2 3.02 2 2 C1.34 1.34 0.68 0.68 0 0 Z " fill="#E8E8E8" transform="translate(173,357)"/>
<path d="M0 0 C3.3 1.98 6.6 3.96 10 6 C9.67 6.66 9.34 7.32 9 8 C6.69 8 4.38 8 2 8 C0 2.25 0 2.25 0 0 Z " fill="#EBEBEB" transform="translate(146,322)"/>
<path d="M0 0 C3.9036874 3.46994436 6.36588975 7.55224006 9 12 C7.02 12.99 7.02 12.99 5 14 C4.67 12.02 4.34 10.04 4 8 C2.68 8.33 1.36 8.66 0 9 C0.185625 8.2575 0.37125 7.515 0.5625 6.75 C0.99203108 4.05009037 0.85122974 2.55368923 0 0 Z " fill="#E8E7E7" transform="translate(495,65)"/>
<path d="M0 0 C0.33 0 0.66 0 1 0 C1.12375 0.804375 1.2475 1.60875 1.375 2.4375 C1.58125 3.283125 1.7875 4.12875 2 5 C2.66 5.33 3.32 5.66 4 6 C4 8.31 4 10.62 4 13 C3.34 12.67 2.68 12.34 2 12 C1.34 13.32 0.68 14.64 0 16 C0 10.72 0 5.44 0 0 Z " fill="#454343" transform="translate(106,233)"/>
<path d="M0 0 C3.63 0 7.26 0 11 0 C11.33 1.32 11.66 2.64 12 4 C8.7 4 5.4 4 2 4 C2 3.01 2 2.02 2 1 C1.34 0.67 0.68 0.34 0 0 Z " fill="#393738" transform="translate(88,490)"/>
<path d="M0 0 C1.32 0 2.64 0 4 0 C3.9071875 1.175625 3.9071875 1.175625 3.8125 2.375 C3.874375 3.24125 3.93625 4.1075 4 5 C4.99 5.66 5.98 6.32 7 7 C6.67 7.99 6.34 8.98 6 10 C6.87483915 12.16715557 6.87483915 12.16715557 8 14 C7.34 14 6.68 14 6 14 C4.99515796 12.04414675 3.99626195 10.08523763 3 8.125 C2.1646875 6.48917969 2.1646875 6.48917969 1.3125 4.8203125 C0 2 0 2 0 0 Z " fill="#E7E6E7" transform="translate(127,271)"/>
<path d="M0 0 C1.45792884 -0.05399736 2.91642712 -0.09279177 4.375 -0.125 C5.18710937 -0.14820313 5.99921875 -0.17140625 6.8359375 -0.1953125 C9 0 9 0 11 2 C9.35 3.32 7.7 4.64 6 6 C3.97945196 4.35830472 1.97956942 2.69088222 0 1 C0 0.67 0 0.34 0 0 Z " fill="#E8E6E7" transform="translate(344,36)"/>
<path d="M0 0 C0.66 0.33 1.32 0.66 2 1 C2 4.3 2 7.6 2 11 C1.01 11 0.02 11 -1 11 C-1.33 11.66 -1.66 12.32 -2 13 C-1.85769192 11.58297487 -1.71099254 10.1663904 -1.5625 8.75 C-1.48128906 7.96109375 -1.40007812 7.1721875 -1.31640625 6.359375 C-1.02365007 4.17635361 -0.57935581 2.1226818 0 0 Z " fill="#DFDDDE" transform="translate(124,217)"/>
<path d="M0 0 C2.31 0 4.62 0 7 0 C6.04578192 1.14926266 5.08647955 2.29430541 4.125 3.4375 C3.59132812 4.07558594 3.05765625 4.71367188 2.5078125 5.37109375 C1 7 1 7 -1 8 C-0.67 5.36 -0.34 2.72 0 0 Z " fill="#DFDEDE" transform="translate(195,42)"/>
<path d="M0 0 C0.66 0.33 1.32 0.66 2 1 C2 1.99 2 2.98 2 4 C3.43750191 5.68798827 3.43750191 5.68798827 5 7 C4.67 7.66 4.34 8.32 4 9 C0.17053157 7.54744301 -1.12050295 5.57104439 -3 2 C-2.01 1.34 -1.02 0.68 0 0 Z " fill="#E7E7E7" transform="translate(76,464)"/>
<path d="M0 0 C0 0.99 0 1.98 0 3 C-3.67851445 6.42827538 -7.90325918 9.40671664 -13.0625 9.375 C-14.031875 9.25125 -15.00125 9.1275 -16 9 C-16 8.67 -16 8.34 -16 8 C-15.43152344 7.84144531 -14.86304688 7.68289063 -14.27734375 7.51953125 C-8.6484834 5.81865692 -4.61901529 3.63624608 0 0 Z " fill="#E2E1E1" transform="translate(60,523)"/>
<path d="M0 0 C2.6486859 3.19668988 4.93992341 6.39486597 7 10 C6.34 10.66 5.68 11.32 5 12 C2.5 9.6875 2.5 9.6875 0 7 C0 4.66666667 0 2.33333333 0 0 Z " fill="#DEDCDC" transform="translate(58,471)"/>
<path d="M0 0 C0.33 0 0.66 0 1 0 C1 6.27 1 12.54 1 19 C0.34 19 -0.32 19 -1 19 C-1.33 19.66 -1.66 20.32 -2 21 C-1.01 10.605 -1.01 10.605 0 0 Z " fill="#D8D6D7" transform="translate(221,386)"/>
<path d="M0 0 C0.33 0.66 0.66 1.32 1 2 C3.02463255 2.65213292 3.02463255 2.65213292 5 3 C5 3.66 5 4.32 5 5 C5.66 5.66 6.32 6.32 7 7 C6.01 7.33 5.02 7.66 4 8 C2.17578125 6.78515625 2.17578125 6.78515625 0.3125 5.0625 C-0.31011719 4.49660156 -0.93273437 3.93070312 -1.57421875 3.34765625 C-2.04472656 2.90292969 -2.51523437 2.45820313 -3 2 C-2.01 1.34 -1.02 0.68 0 0 Z " fill="#EBE9EA" transform="translate(408,388)"/>
<path d="M0 0 C1.73684533 3.47369066 2.30084112 5.07619937 2.625 8.75 C2.69976563 9.54921875 2.77453125 10.3484375 2.8515625 11.171875 C2.90054688 11.77515625 2.94953125 12.3784375 3 13 C2.34 13 1.68 13 1 13 C0.67 13.66 0.34 14.32 0 15 C0 10.05 0 5.1 0 0 Z " fill="#DEDEDE" transform="translate(601,156)"/>
<path d="M0 0 C0.99 1.32 1.98 2.64 3 4 C2.01 4.495 2.01 4.495 1 5 C1.33 5.99 1.66 6.98 2 8 C1.01 8.99 0.02 9.98 -1 11 C-2.32 9.35 -3.64 7.7 -5 6 C-3.35 6 -1.7 6 0 6 C0 4.02 0 2.04 0 0 Z " fill="#DFDEDE" transform="translate(126,415)"/>
<path d="M0 0 C1.35015859 4.05047576 0.62084998 6.7920168 0 11 C-2.475 10.01 -2.475 10.01 -5 9 C-3.50163895 5.88801935 -1.80066242 2.9465385 0 0 Z " fill="#E1E1E1" transform="translate(633,324)"/>
<path d="M0 0 C1.32 0 2.64 0 4 0 C3.46930939 3.82097239 2.50298434 6.06171403 0 9 C-1.125 2.25 -1.125 2.25 0 0 Z " fill="#E6E6E6" transform="translate(623,303)"/>
<path d="M0 0 C0.33 0 0.66 0 1 0 C1 5.28 1 10.56 1 16 C0.01 15.67 -0.98 15.34 -2 15 C-1.855625 14.01 -1.71125 13.02 -1.5625 12 C-0.99074821 8.00590535 -0.49180166 4.00467063 0 0 Z " fill="#DCDBDB" transform="translate(648,282)"/>
<path d="M0 0 C0.66 0 1.32 0 2 0 C3.26237731 2.52475462 3.09856404 4.31200466 3.0625 7.125 C3.05347656 8.03507813 3.04445313 8.94515625 3.03515625 9.8828125 C3.02355469 10.58148438 3.01195312 11.28015625 3 12 C2.01 11.34 1.02 10.68 0 10 C-0.29296875 7.6171875 -0.29296875 7.6171875 -0.1875 4.875 C-0.16042969 3.96492187 -0.13335938 3.05484375 -0.10546875 2.1171875 C-0.07066406 1.41851562 -0.03585937 0.71984375 0 0 Z " fill="#2C2C2C" transform="translate(617,183)"/>
<path d="M0 0 C1.98 0 3.96 0 6 0 C6.66 2.31 7.32 4.62 8 7 C7.01 7.33 6.02 7.66 5 8 C2.525 4.04 2.525 4.04 0 0 Z " fill="#EAE8E9" transform="translate(600,122)"/>
<path d="M0 0 C2.64 1.65 5.28 3.3 8 5 C7.34 5.66 6.68 6.32 6 7 C5.34 6.67 4.68 6.34 4 6 C1.90178785 6.39938767 1.90178785 6.39938767 0 7 C0 4.69 0 2.38 0 0 Z " fill="#E9E8E8" transform="translate(473,45)"/>
<path d="M0 0 C0.66 0.33 1.32 0.66 2 1 C1.67 2.32 1.34 3.64 1 5 C-3.455 5.495 -3.455 5.495 -8 6 C-5.38485683 3.87961365 -2.80362384 1.86908256 0 0 Z " fill="#E5E5E5" transform="translate(230,41)"/>
<path d="M0 0 C-0.66 1.32 -1.32 2.64 -2 4 C-4.64 4 -7.28 4 -10 4 C-10.33 3.34 -10.66 2.68 -11 2 C-3.375 0 -3.375 0 0 0 Z " fill="#E4E4E4" transform="translate(111,491)"/>
<path d="M0 0 C0.99 0 1.98 0 3 0 C2.32116957 3.11547441 1.25893098 5.85137721 -0.0625 8.75 C-0.60583984 9.94882812 -0.60583984 9.94882812 -1.16015625 11.171875 C-1.43730469 11.77515625 -1.71445313 12.3784375 -2 13 C-3.18414294 9.44757118 -2.69535532 8.30169438 -1.5625 4.8125 C-1.27503906 3.91144531 -0.98757812 3.01039063 -0.69140625 2.08203125 C-0.46324219 1.39496094 -0.23507813 0.70789063 0 0 Z " fill="#EAEAEA" transform="translate(134,464)"/>
<path d="M0 0 C0.66 0.66 1.32 1.32 2 2 C1.6875 3.875 1.6875 3.875 1 6 C0.7215625 7.11375 0.7215625 7.11375 0.4375 8.25 C0.293125 8.8275 0.14875 9.405 0 10 C-1.65 10.33 -3.3 10.66 -5 11 C-3.35 7.37 -1.7 3.74 0 0 Z " fill="#E6E6E6" transform="translate(217,410)"/>
<path d="M0 0 C2.97 0 5.94 0 9 0 C8.67 1.65 8.34 3.3 8 5 C4.35446828 3.7191375 2.83328987 2.83328987 0 0 Z " fill="#E6E6E6" transform="translate(336,31)"/>
<path d="M0 0 C1.14926266 0.95421808 2.29430541 1.91352045 3.4375 2.875 C4.07558594 3.40867187 4.71367187 3.94234375 5.37109375 4.4921875 C7 6 7 6 8 8 C6.02 8 4.04 8 2 8 C2 6.35 2 4.7 2 3 C1.34 3 0.68 3 0 3 C0 2.01 0 1.02 0 0 Z " fill="#E2E2E2" transform="translate(12,519)"/>
<path d="M0 0 C0.33 0.99 0.66 1.98 1 3 C-0.9375 5.6875 -0.9375 5.6875 -3 8 C-2.34 8.66 -1.68 9.32 -1 10 C-3.31 10 -5.62 10 -8 10 C-7.59007812 9.52949219 -7.18015625 9.05898438 -6.7578125 8.57421875 C-6.21898437 7.95160156 -5.68015625 7.32898438 -5.125 6.6875 C-4.59132812 6.07261719 -4.05765625 5.45773437 -3.5078125 4.82421875 C-1.8359553 2.86501788 -1.8359553 2.86501788 0 0 Z " fill="#E5E3E4" transform="translate(211,421)"/>
<path d="M0 0 C0.66 0.33 1.32 0.66 2 1 C0.875 3.5 0.875 3.5 -1 6 C-4.1875 6.3125 -4.1875 6.3125 -7 6 C-7.33 5.34 -7.66 4.68 -8 4 C-6.71349294 3.30289269 -5.42059335 2.61757124 -4.125 1.9375 C-3.40570313 1.55464844 -2.68640625 1.17179687 -1.9453125 0.77734375 C-1.30335938 0.52082031 -0.66140625 0.26429688 0 0 Z " fill="#E4E2E3" transform="translate(511,415)"/>
<path d="M0 0 C1.65 0 3.3 0 5 0 C3.03681826 3.53372712 0.95929119 6.24479785 -2 9 C-2.33 7.68 -2.66 6.36 -3 5 C-2.01 4.34 -1.02 3.68 0 3 C0 2.01 0 1.02 0 0 Z " fill="#E6E6E6" transform="translate(532,373)"/>
<path d="M0 0 C1.32 0 2.64 0 4 0 C3.67 1.32 3.34 2.64 3 4 C2.01 4 1.02 4 0 4 C-0.66 5.65 -1.32 7.3 -2 9 C-2.99 8.67 -3.98 8.34 -5 8 C-4.26829419 6.65654015 -3.51394247 5.32539416 -2.75 4 C-2.33234375 3.2575 -1.9146875 2.515 -1.484375 1.75 C-0.99453125 1.1725 -0.5046875 0.595 0 0 Z " fill="#E5E5E5" transform="translate(554,374)"/>
<path d="M0 0 C1.53166168 4.08443115 0.63081652 7.79455657 0 12 C-0.33 12 -0.66 12 -1 12 C-1 10.35 -1 8.7 -1 7 C-1.66 7 -2.32 7 -3 7 C-3.1875 4.625 -3.1875 4.625 -3 2 C-2.01 1.34 -1.02 0.68 0 0 Z " fill="#E5E5E5" transform="translate(604,188)"/>
<path d="M0 0 C1.65 0 3.3 0 5 0 C4.67 0.99 4.34 1.98 4 3 C3.01 3 2.02 3 1 3 C0.731875 3.78375 0.46375 4.5675 0.1875 5.375 C-1 8 -1 8 -4 10 C-2.8905928 6.51329166 -1.73662334 3.22515763 0 0 Z " fill="#E3E1E2" transform="translate(189,81)"/>
<path d="M0 0 C1.9375 0.5 1.9375 0.5 4 2 C4.68790422 4.69658452 4.81946464 7.2017019 5 10 C4.34 10 3.68 10 3 10 C-0.22265625 4.82421875 -0.22265625 4.82421875 -1 3 C-0.67 2.01 -0.34 1.02 0 0 Z " fill="#EDECEC" transform="translate(517,66)"/>
<path d="M0 0 C5.4389165 -0.21755666 9.87080814 -0.10428384 15 2 C14.34 2.66 13.68 3.32 13 4 C10.375 3.625 10.375 3.625 8 3 C8 2.34 8 1.68 8 1 C5.36 1 2.72 1 0 1 C0 0.67 0 0.34 0 0 Z " fill="#DBDBDB" transform="translate(91,427)"/>
<path d="M0 0 C1.65 0 3.3 0 5 0 C5 0.99 5 1.98 5 3 C2.5 5.1875 2.5 5.1875 0 7 C0 4.69 0 2.38 0 0 Z " fill="#E6E4E5" transform="translate(62,421)"/>
<path d="M0 0 C2.64 0.33 5.28 0.66 8 1 C5.37801226 3.15377564 3.35595828 4.40072174 0 5 C-0.33 4.34 -0.66 3.68 -1 3 C-0.67 2.01 -0.34 1.02 0 0 Z " fill="#E4E3E3" transform="translate(500,399)"/>
<path d="M0 0 C1.65 0 3.3 0 5 0 C5 1.65 5 3.3 5 5 C5.66 5 6.32 5 7 5 C6.67 5.99 6.34 6.98 6 8 C4.99403703 7.0479279 3.99538437 6.08812654 3 5.125 C2.443125 4.59132813 1.88625 4.05765625 1.3125 3.5078125 C0 2 0 2 0 0 Z " fill="#DAD8D9" transform="translate(249,378)"/>
<path d="M0 0 C-1.1875 1.5 -1.1875 1.5 -3 3 C-5.5 3.1875 -5.5 3.1875 -8 3 C-8.99 3 -9.98 3 -11 3 C-9 0 -9 0 -6.625 -0.75 C-4.07496 -0.99286095 -2.40864929 -0.8028831 0 0 Z " fill="#EAEAEA" transform="translate(566,369)"/>
<path d="M0 0 C0.66 0.33 1.32 0.66 2 1 C0.35 4.3 -1.3 7.6 -3 11 C-3.66 11 -4.32 11 -5 11 C-4.855625 10.443125 -4.71125 9.88625 -4.5625 9.3125 C-3.97230872 6.88615805 -3.476571 4.45093655 -3 2 C-2.01 2 -1.02 2 0 2 C0 1.34 0 0.68 0 0 Z " fill="#E9E8E9" transform="translate(545,355)"/>
<path d="M0 0 C0 0.33 0 0.66 0 1 C-5.38490641 1.91657981 -10.54230189 2.11138159 -16 2 C-15 0 -15 0 -13.0625 -0.6875 C-8.63968751 -1.1388074 -4.39657032 -0.55490693 0 0 Z " fill="#D6D6D6" transform="translate(566,352)"/>
<path d="M0 0 C1.8218398 3.6436796 2.57678304 6.02176062 3 10 C2.67 10.99 2.34 11.98 2 13 C1.34 13 0.68 13 0 13 C0 8.71 0 4.42 0 0 Z " fill="#DFDFDF" transform="translate(110,269)"/>
<path d="M0 0 C1.32 0.33 2.64 0.66 4 1 C2.75023244 4.65316671 2.32901247 5.78065836 -1 8 C-1.66 7.01 -2.32 6.02 -3 5 C-2.01 5 -1.02 5 0 5 C0 3.35 0 1.7 0 0 Z " fill="#312F30" transform="translate(59,517)"/>
<path d="M0 0 C0.33 0 0.66 0 1 0 C1.12375 0.928125 1.2475 1.85625 1.375 2.8125 C1.81533082 6.13925235 1.81533082 6.13925235 4 9 C4 9.66 4 10.32 4 11 C4.66 11.33 5.32 11.66 6 12 C5.01 12.33 4.02 12.66 3 13 C0.95204577 11.0373772 0.05023362 9.5722693 -0.19921875 6.73046875 C-0.18858877 4.48045617 -0.12958525 2.24614438 0 0 Z " fill="#D2D1D1" transform="translate(22,497)"/>
<path d="M0 0 C0.33 0 0.66 0 1 0 C1 3.3 1 6.6 1 10 C-0.32 10 -1.64 10 -3 10 C-3.33 9.34 -3.66 8.68 -4 8 C-3.525625 7.608125 -3.05125 7.21625 -2.5625 6.8125 C-0.64820367 4.59191626 -0.38733012 2.86624291 0 0 Z " fill="#D7D7D7" transform="translate(120,447)"/>
<path d="M0 0 C2.64 0.66 5.28 1.32 8 2 C8 2.66 8 3.32 8 4 C5.03 4 2.06 4 -1 4 C-0.67 2.68 -0.34 1.36 0 0 Z " fill="#EFEFEF" transform="translate(431,422)"/>
<path d="M0 0 C2.64 0 5.28 0 8 0 C8 1.65 8 3.3 8 5 C5.36 4.01 2.72 3.02 0 2 C0 1.34 0 0.68 0 0 Z " fill="#EEECED" transform="translate(278,399)"/>
<path d="M0 0 C0.33 0 0.66 0 1 0 C1.08226668 3.04386724 0.97608217 5.07175348 0 8 C-0.99 8.33 -1.98 8.66 -3 9 C-3.75 7.3125 -3.75 7.3125 -4 5 C-2.125 2.25 -2.125 2.25 0 0 Z " fill="#EAE9E9" transform="translate(139,188)"/>
<path d="M0 0 C0.99 0.66 1.98 1.32 3 2 C0.03 4.475 0.03 4.475 -3 7 C-3 6.34 -3 5.68 -3 5 C-3.66 5 -4.32 5 -5 5 C-5 4.34 -5 3.68 -5 3 C-2.5 1.375 -2.5 1.375 0 0 Z " fill="#2D2B2C" transform="translate(148,174)"/>
<path d="M0 0 C0.33 1.32 0.66 2.64 1 4 C-2.07322544 4.91058531 -4.80097361 5.08886184 -8 5 C-8 4.34 -8 3.68 -8 3 C-5.36 2.01 -2.72 1.02 0 0 Z " fill="#FAFAFA" transform="translate(387,16)"/>
<path d="M0 0 C5.875 3.75 5.875 3.75 7 6 C3.25 7.125 3.25 7.125 1 6 C0.375 2.9375 0.375 2.9375 0 0 Z " fill="#E8E8E8" transform="translate(107,430)"/>
<path d="M0 0 C1.98 0.99 3.96 1.98 6 3 C6 3.66 6 4.32 6 5 C3.69 5 1.38 5 -1 5 C-0.67 3.35 -0.34 1.7 0 0 Z " fill="#ECEAEB" transform="translate(255,405)"/>
<path d="M0 0 C1.33332095 2.6666419 0.67102033 4.16680303 0 7 C-1.98 7 -3.96 7 -6 7 C-4.02 4.69 -2.04 2.38 0 0 Z " fill="#EDEBEB" transform="translate(147,179)"/>
<path d="M0 0 C2.64465038 3.1254959 3.84414715 6.08788267 5 10 C4.01 10 3.02 10 2 10 C-0.09350689 6.5980513 -0.17942163 3.94727588 0 0 Z " fill="#DFDFDF" transform="translate(505,80)"/>
<path d="M0 0 C0.99 0.33 1.98 0.66 3 1 C0.69 3.97 -1.62 6.94 -4 10 C-4.66 9.34 -5.32 8.68 -6 8 C-4.7260411 5.96166576 -3.38938077 3.96147874 -2 2 C-1.34 2 -0.68 2 0 2 C0 1.34 0 0.68 0 0 Z " fill="#E1E1E1" transform="translate(188,53)"/>
<path d="M0 0 C1 2 1 2 0.8125 3.9375 C-0.22687271 6.57590764 -1.6538835 7.48637645 -4 9 C-4.33 8.01 -4.66 7.02 -5 6 C-3.59554165 3.7363436 -1.8032087 1.9791315 0 0 Z " fill="#E6E6E6" transform="translate(78,433)"/>
<path d="M0 0 C-0.66 1.32 -1.32 2.64 -2 4 C-3.98 4 -5.96 4 -8 4 C-4.5 0 -4.5 0 0 0 Z " fill="#EBEBEB" transform="translate(479,426)"/>
<path d="M0 0 C1.98 0 3.96 0 6 0 C5.1875 1.9375 5.1875 1.9375 4 4 C3.01 4.33 2.02 4.66 1 5 C0.67 3.35 0.34 1.7 0 0 Z " fill="#E9E7E8" transform="translate(371,389)"/>
<path d="M0 0 C0.99 0 1.98 0 3 0 C3.33 1.65 3.66 3.3 4 5 C2.68 5.99 1.36 6.98 0 8 C0 5.36 0 2.72 0 0 Z " fill="#E9E9E9" transform="translate(521,383)"/>
<path d="M0 0 C2.125 0.9375 2.125 0.9375 4 2 C4 2.99 4 3.98 4 5 C2.02 5 0.04 5 -2 5 C-2 3.68 -2 2.36 -2 1 C-1.34 0.67 -0.68 0.34 0 0 Z " fill="#EEECED" transform="translate(608,213)"/>
<path d="M0 0 C0.66 0.33 1.32 0.66 2 1 C2 4.63 2 8.26 2 12 C0.185964 8.37192801 -0.56942261 5.96131197 -1 2 C-0.67 1.34 -0.34 0.68 0 0 Z " fill="#E6E4E5" transform="translate(615,143)"/>
<path d="M0 0 C0.99 0.33 1.98 0.66 3 1 C1.71034824 2.37562854 0.37310707 3.70766393 -1 5 C-1.66 5 -2.32 5 -3 5 C-3 5.99 -3 6.98 -3 8 C-3.99 7.67 -4.98 7.34 -6 7 C-4.02 4.69 -2.04 2.38 0 0 Z " fill="#EDEDED" transform="translate(201,65)"/>
<path d="M0 0 C0 1.32 0 2.64 0 4 C-2.64 3.67 -5.28 3.34 -8 3 C-4.93882432 0.37613513 -4.26826873 0 0 0 Z " fill="#EDEDED" transform="translate(110,410)"/>
<path d="M0 0 C1.32 1.32 2.64 2.64 4 4 C3.01 4.99 2.02 5.98 1 7 C0.01 6.01 -0.98 5.02 -2 4 C-1.34 4 -0.68 4 0 4 C0 3.34 0 2.68 0 2 C-0.66 1.67 -1.32 1.34 -2 1 C-1.34 0.67 -0.68 0.34 0 0 Z " fill="#1C1A1A" transform="translate(251,382)"/>
<path d="M0 0 C0.99 0.99 1.98 1.98 3 3 C0.525 4.485 0.525 4.485 -2 6 C-4 4 -4 4 -5 2 C-3.35 1.34 -1.7 0.68 0 0 Z " fill="#EDEDED" transform="translate(137,163)"/>
<path d="M0 0 C2.15377564 2.62198774 3.40072174 4.64404172 4 8 C2.68 8.33 1.36 8.66 0 9 C0 6.03 0 3.06 0 0 Z " fill="#E7E5E5" transform="translate(596,145)"/>
<path d="M0 0 C3.125 -0.1875 3.125 -0.1875 6 0 C3.38485683 2.12038635 0.80362384 4.13091744 -2 6 C-2 3 -2 3 0 0 Z " fill="#E9E9E9" transform="translate(211,31)"/>
<path d="M0 0 C0.99 0 1.98 0 3 0 C3 1.98 3 3.96 3 6 C2.01 6.495 2.01 6.495 1 7 C0.34 6.67 -0.32 6.34 -1 6 C-0.67 4.02 -0.34 2.04 0 0 Z " fill="#F5F4F4" transform="translate(127,420)"/>
<path d="M0 0 C0.66 0.66 1.32 1.32 2 2 C-3.75 5 -3.75 5 -6 5 C-6 3.68 -6 2.36 -6 1 C-4.7934375 1.0309375 -4.7934375 1.0309375 -3.5625 1.0625 C-1.06645115 1.29633621 -1.06645115 1.29633621 0 0 Z " fill="#E6E6E6" transform="translate(361,398)"/>
<path d="M0 0 C1.0625 1.875 1.0625 1.875 2 4 C1.67 4.66 1.34 5.32 1 6 C-0.65 6 -2.3 6 -4 6 C-1.125 1.125 -1.125 1.125 0 0 Z " fill="#E2DFE0" transform="translate(540,393)"/>
<path d="M0 0 C2.64 0 5.28 0 8 0 C7.67 1.32 7.34 2.64 7 4 C4.08482708 2.92598892 2.22189824 2.22189824 0 0 Z " fill="#E9E9E9" transform="translate(267,394)"/>
<path d="M0 0 C2.52588702 2.36292656 3.88820837 3.66462511 5 7 C4.01 7.33 3.02 7.66 2 8 C0 6 0 6 -0.125 2.875 C-0.08375 1.92625 -0.0425 0.9775 0 0 Z " fill="#E3E1E1" transform="translate(223,370)"/>
<path d="M0 0 C2.86724686 0.57344937 3.8614515 0.8614515 6 3 C5.625 5.125 5.625 5.125 5 7 C3.29115995 5.37660195 1.62553283 3.70680947 0 2 C0 1.34 0 0.68 0 0 Z " fill="#E6E5E6" transform="translate(138,291)"/>
<path d="M0 0 C0.66 0.66 1.32 1.32 2 2 C1.01 4.31 0.02 6.62 -1 9 C-1.66 8.34 -2.32 7.68 -3 7 C-2.75 3.9375 -2.75 3.9375 -2 1 C-1.34 0.67 -0.68 0.34 0 0 Z " fill="#EBE9EA" transform="translate(171,79)"/>
<path d="M0 0 C2.31 0.33 4.62 0.66 7 1 C5.35 2.65 3.7 4.3 2 6 C1.34 5.34 0.68 4.68 0 4 C0 2.68 0 1.36 0 0 Z " fill="#ECEAEB" transform="translate(201,36)"/>
<path d="M0 0 C0 1.32 0 2.64 0 4 C-2.64 4 -5.28 4 -8 4 C-3.375 0 -3.375 0 0 0 Z " fill="#E4E4E4" transform="translate(121,486)"/>
<path d="M0 0 C0.515625 0.2475 1.03125 0.495 1.5625 0.75 C-1.13938004 2.55125336 -3.36807703 3.75243753 -6.4375 4.75 C-7.4275 4.42 -8.4175 4.09 -9.4375 3.75 C-3.0375 -0.31153846 -3.0375 -0.31153846 0 0 Z " fill="#D6D6D6" transform="translate(88.4375,428.25)"/>
<path d="M0 0 C0.99 0.33 1.98 0.66 3 1 C0.525 5.455 0.525 5.455 -2 10 C-3.19156292 5.23374833 -2.3415946 4.12120649 0 0 Z " fill="#DAD9D9" transform="translate(127,363)"/>
<path d="M0 0 C0 0.66 0 1.32 0 2 C-1.98 2.99 -3.96 3.98 -6 5 C-6.33 3.68 -6.66 2.36 -7 1 C-2.25 0 -2.25 0 0 0 Z " fill="#EAEAEA" transform="translate(149,345)"/>
<path d="M0 0 C-0.33 1.32 -0.66 2.64 -1 4 C-3.64 3.67 -6.28 3.34 -9 3 C-6.38997624 -0.48003168 -4.1689578 -0.27793052 0 0 Z " fill="#C9C9C9" transform="translate(187,340)"/>
<path d="M0 0 C1.65 0 3.3 0 5 0 C3.68 2.31 2.36 4.62 1 7 C0.67 7 0.34 7 0 7 C0 4.69 0 2.38 0 0 Z " fill="#ECEAEA" transform="translate(617,314)"/>
<path d="M0 0 C2.475 0.99 2.475 0.99 5 2 C4.34 3.32 3.68 4.64 3 6 C2.01 6 1.02 6 0 6 C0 4.02 0 2.04 0 0 Z " fill="#EEEEEE" transform="translate(553,105)"/>
<path d="M0 0 C3.63 0.66 7.26 1.32 11 2 C11 2.33 11 2.66 11 3 C7.37 3 3.74 3 0 3 C0 2.01 0 1.02 0 0 Z " fill="#E9E8E8" transform="translate(153,439)"/>
<path d="M0 0 C-0.66 1.65 -1.32 3.3 -2 5 C-2.99 4.67 -3.98 4.34 -5 4 C-5 3.34 -5 2.68 -5 2 C-5.66 1.67 -6.32 1.34 -7 1 C-4 0 -4 0 0 0 Z " fill="#2F2F2F" transform="translate(352,405)"/>
<path d="M0 0 C0.66 0.66 1.32 1.32 2 2 C0.515 4.475 0.515 4.475 -1 7 C-1.99 6.67 -2.98 6.34 -4 6 C-3.34 5.67 -2.68 5.34 -2 5 C-2 3.68 -2 2.36 -2 1 C-1.34 0.67 -0.68 0.34 0 0 Z " fill="#2B2A2B" transform="translate(553,372)"/>
<path d="M0 0 C0.99 0 1.98 0 3 0 C3 3.3 3 6.6 3 10 C1.19669467 6.39338934 0.53400897 3.91606575 0 0 Z " fill="#ECEBEB" transform="translate(123,257)"/>
<path d="M0 0 C0 2.97 0 5.94 0 9 C-2.5654594 6.4345406 -2.54046087 4.52313332 -3 1 C-1 0 -1 0 0 0 Z " fill="#EBEBEB" transform="translate(649,245)"/>
<path d="M0 0 C0.99 0 1.98 0 3 0 C3.66 1.32 4.32 2.64 5 4 C4.01 4.66 3.02 5.32 2 6 C1.34 5.34 0.68 4.68 0 4 C0 2.68 0 1.36 0 0 Z " fill="#1D1B1C" transform="translate(617,218)"/>
<path d="M0 0 C1.32 1.32 2.64 2.64 4 4 C3.67 4.66 3.34 5.32 3 6 C1.68 6 0.36 6 -1 6 C-0.67 4.02 -0.34 2.04 0 0 Z " fill="#E9E9E9" transform="translate(613,217)"/>
<path d="M0 0 C0.66 0.33 1.32 0.66 2 1 C1.2884375 1.6496875 1.2884375 1.6496875 0.5625 2.3125 C-1.23686957 4.02309613 -1.23686957 4.02309613 -2 7 C-2.99 6.67 -3.98 6.34 -5 6 C-3.63016497 2.83884224 -3.0109362 2.0072908 0 0 Z " fill="#E6E5E5" transform="translate(160,168)"/>
<path d="M0 0 C2.64 0 5.28 0 8 0 C7.67 1.32 7.34 2.64 7 4 C4.69 3.01 2.38 2.02 0 1 C0 0.67 0 0.34 0 0 Z " fill="#E8E6E7" transform="translate(471,26)"/>
<path d="M0 0 C1.4540625 0.0309375 1.4540625 0.0309375 2.9375 0.0625 C2.9375 0.7225 2.9375 1.3825 2.9375 2.0625 C0.9575 2.7225 -1.0225 3.3825 -3.0625 4.0625 C-3.3925 3.0725 -3.7225 2.0825 -4.0625 1.0625 C-3.0625 0.0625 -3.0625 0.0625 0 0 Z " fill="#E5E5E5" transform="translate(381.0625,19.9375)"/>
<path d="M0 0 C1.98 0.66 3.96 1.32 6 2 C5.01 2.495 5.01 2.495 4 3 C4 3.66 4 4.32 4 5 C2.68 4.34 1.36 3.68 0 3 C0 2.01 0 1.02 0 0 Z " fill="#E2E1E2" transform="translate(146,414)"/>
<path d="M0 0 C1.65 0 3.3 0 5 0 C5 0.66 5 1.32 5 2 C5.99 2.33 6.98 2.66 8 3 C5.69 3 3.38 3 1 3 C0.67 2.01 0.34 1.02 0 0 Z " fill="#D8D8D8" transform="translate(83,410)"/>
<path d="M0 0 C0.66 0.33 1.32 0.66 2 1 C0.515 3.475 0.515 3.475 -1 6 C-2.32 5.34 -3.64 4.68 -5 4 C-3.35 2.68 -1.7 1.36 0 0 Z " fill="#312F2F" transform="translate(604,334)"/>
<path d="M0 0 C1.32 0.99 2.64 1.98 4 3 C3.67 3.99 3.34 4.98 3 6 C1.35 4.68 -0.3 3.36 -2 2 C-1.34 1.34 -0.68 0.68 0 0 Z " fill="#2A292A" transform="translate(146,318)"/>
<path d="M0 0 C0.99 0.33 1.98 0.66 3 1 C2.67 2.32 2.34 3.64 2 5 C1.01 5 0.02 5 -1 5 C-0.67 3.35 -0.34 1.7 0 0 Z " fill="#EFEFEF" transform="translate(122,298)"/>
<path d="M0 0 C1.485 0.99 1.485 0.99 3 2 C3.1875 5.125 3.1875 5.125 3 8 C2.01 8 1.02 8 0 8 C0 5.36 0 2.72 0 0 Z " fill="#333233" transform="translate(617,166)"/>
<path d="M0 0 C2.97 0.495 2.97 0.495 6 1 C1.125 5 1.125 5 0 5 C0 3.35 0 1.7 0 0 Z " fill="#E8E5E6" transform="translate(147,154)"/>
<path d="M0 0 C1.32 1.32 2.64 2.64 4 4 C3.67 4.66 3.34 5.32 3 6 C1.35 5.67 -0.3 5.34 -2 5 C-1.34 3.35 -0.68 1.7 0 0 Z " fill="#E5E5E5" transform="translate(588,132)"/>
<path d="M0 0 C1.65 0 3.3 0 5 0 C5 1.65 5 3.3 5 5 C2.5 3.625 2.5 3.625 0 2 C0 1.34 0 0.68 0 0 Z " fill="#EAE8E8" transform="translate(580,101)"/>
<path d="M0 0 C0.66 1.32 1.32 2.64 2 4 C-2.75 5.125 -2.75 5.125 -5 4 C-3.35 2.68 -1.7 1.36 0 0 Z " fill="#E5E5E5" transform="translate(215,51)"/>
<path d="M0 0 C2.475 0.99 2.475 0.99 5 2 C3.6875 3.5 3.6875 3.5 2 5 C1.01 5 0.02 5 -1 5 C-0.67 3.35 -0.34 1.7 0 0 Z " fill="#E6E6E6" transform="translate(324,42)"/>
<path d="M0 0 C-0.33 1.32 -0.66 2.64 -1 4 C-3.97 3.505 -3.97 3.505 -7 3 C-3.375 0 -3.375 0 0 0 Z " fill="#DEDEDE" transform="translate(239,38)"/>
<path d="M0 0 C1.98 0 3.96 0 6 0 C5.67 1.65 5.34 3.3 5 5 C4.01 4.67 3.02 4.34 2 4 C2 3.34 2 2.68 2 2 C1.34 1.34 0.68 0.68 0 0 Z " fill="#2B2929" transform="translate(412,15)"/>
</svg>
