<svg width="22" height="17" viewBox="0 0 22 17" fill="none" xmlns="http://www.w3.org/2000/svg">
<g id="Group">
<path id="Vector" fill-rule="evenodd" clip-rule="evenodd" d="M11.0002 5.17976C10.0616 5.17976 9.16141 5.55262 8.49773 6.21631C7.83404 6.88 7.46118 7.78015 7.46118 8.71875C7.46118 9.65735 7.83404 10.5575 8.49773 11.2212C9.16141 11.8849 10.0616 12.2577 11.0002 12.2577C11.9388 12.2577 12.8389 11.8849 13.5026 11.2212C14.1663 10.5575 14.5392 9.65735 14.5392 8.71875C14.5392 7.78015 14.1663 6.88 13.5026 6.21631C12.8389 5.55262 11.9388 5.17976 11.0002 5.17976ZM8.87678 8.71875C8.87678 8.15559 9.10049 7.6155 9.4987 7.21728C9.89692 6.81907 10.437 6.59536 11.0002 6.59536C11.5633 6.59536 12.1034 6.81907 12.5016 7.21728C12.8998 7.6155 13.1236 8.15559 13.1236 8.71875C13.1236 9.28191 12.8998 9.822 12.5016 10.2202C12.1034 10.6184 11.5633 10.8421 11.0002 10.8421C10.437 10.8421 9.89692 10.6184 9.4987 10.2202C9.10049 9.822 8.87678 9.28191 8.87678 8.71875Z" fill="black"/>
<path id="Vector_2" fill-rule="evenodd" clip-rule="evenodd" d="M11.0001 0.461121C6.74008 0.461121 3.8702 3.01296 2.20451 5.17694L2.17526 5.21563C1.79777 5.70542 1.45142 6.15558 1.21643 6.68785C0.964453 7.2588 0.85498 7.88072 0.85498 8.71875C0.85498 9.55678 0.964453 10.1787 1.21643 10.7497C1.45236 11.2819 1.79871 11.733 2.17526 12.2219L2.20546 12.2606C3.8702 14.4245 6.74008 16.9764 11.0001 16.9764C15.2601 16.9764 18.1299 14.4245 19.7956 12.2606L19.8249 12.2219C20.2024 11.733 20.5487 11.2819 20.7837 10.7497C21.0357 10.1787 21.1452 9.55678 21.1452 8.71875C21.1452 7.88072 21.0357 7.2588 20.7837 6.68785C20.5478 6.15558 20.2014 5.70542 19.8249 5.21563L19.7947 5.17694C18.1299 3.01296 15.2601 0.461121 11.0001 0.461121ZM3.32755 6.04045C4.86394 4.04257 7.36671 1.87671 11.0001 1.87671C14.6334 1.87671 17.1353 4.04257 18.6726 6.04045C19.0878 6.57837 19.3294 6.89924 19.4889 7.25975C19.638 7.5976 19.7296 8.01001 19.7296 8.71875C19.7296 9.42749 19.638 9.8399 19.4889 10.1778C19.3294 10.5383 19.0869 10.8591 18.6735 11.3971C17.1343 13.3949 14.6334 15.5608 11.0001 15.5608C7.36671 15.5608 4.86489 13.3949 3.32755 11.3971C2.91231 10.8591 2.67072 10.5383 2.51123 10.1778C2.36212 9.8399 2.27057 9.42749 2.27057 8.71875C2.27057 8.01001 2.36212 7.5976 2.51123 7.25975C2.67072 6.89924 2.9142 6.57837 3.32755 6.04045Z" fill="black"/>
</g>
</svg>
