<svg width="22" height="22" viewBox="0 0 22 22" fill="none" xmlns="http://www.w3.org/2000/svg">
<g id="Group">
<path id="Vector" fill-rule="evenodd" clip-rule="evenodd" d="M14.9049 8.12701C14.9049 9.15419 14.4969 10.1393 13.7705 10.8656C13.0442 11.5919 12.0591 12 11.0319 12C10.0047 12 9.01963 11.5919 8.29331 10.8656C7.56698 10.1393 7.15894 9.15419 7.15894 8.12701C7.15894 7.09983 7.56698 6.11472 8.29331 5.3884C9.01963 4.66207 10.0047 4.25403 11.0319 4.25403C12.0591 4.25403 13.0442 4.66207 13.7705 5.3884C14.4969 6.11472 14.9049 7.09983 14.9049 8.12701ZM12.9684 8.12701C12.9684 8.6406 12.7644 9.13315 12.4012 9.49632C12.0381 9.85948 11.5455 10.0635 11.0319 10.0635C10.5183 10.0635 10.0258 9.85948 9.66261 9.49632C9.29945 9.13315 9.09543 8.6406 9.09543 8.12701C9.09543 7.61342 9.29945 7.12087 9.66261 6.75771C10.0258 6.39454 10.5183 6.19052 11.0319 6.19052C11.5455 6.19052 12.0381 6.39454 12.4012 6.75771C12.7644 7.12087 12.9684 7.61342 12.9684 8.12701Z" fill="black"/>
<path id="Vector_2" fill-rule="evenodd" clip-rule="evenodd" d="M11.0318 0.381042C5.14971 0.381042 0.381104 5.14965 0.381104 11.0317C0.381104 16.9138 5.14971 21.6825 11.0318 21.6825C16.9139 21.6825 21.6825 16.9138 21.6825 11.0317C21.6825 5.14965 16.9139 0.381042 11.0318 0.381042ZM2.3176 11.0317C2.3176 13.0554 3.00795 14.9183 4.16501 16.3978C4.97779 15.3309 6.02613 14.4663 7.22819 13.8713C8.43025 13.2764 9.75353 12.9674 11.0947 12.9682C12.4187 12.9667 13.7255 13.2675 14.9156 13.8478C16.1056 14.428 17.1474 15.2724 17.9615 16.3164C18.8005 15.2161 19.3653 13.9319 19.6094 12.5699C19.8534 11.2079 19.7697 9.80743 19.365 8.48428C18.9603 7.16112 18.2464 5.95334 17.2823 4.96088C16.3182 3.96842 15.1316 3.2198 13.8207 2.77698C12.5098 2.33415 11.1124 2.20984 9.74391 2.41433C8.37545 2.61883 7.07535 3.14625 5.9512 3.95295C4.82704 4.75966 3.91114 5.82246 3.27929 7.05341C2.64743 8.28437 2.31777 9.64809 2.3176 11.0317ZM11.0318 19.746C9.03132 19.7492 7.09119 19.061 5.53992 17.7978C6.16425 16.9038 6.99538 16.1738 7.96254 15.6701C8.9297 15.1664 10.0043 14.9038 11.0947 14.9047C12.1716 14.9038 13.2331 15.1598 14.1912 15.6515C15.1492 16.1433 15.9761 16.8565 16.6031 17.732C15.0398 19.0362 13.0677 19.7491 11.0318 19.746Z" fill="black"/>
</g>
</svg>
